<svg width="47" height="47" viewBox="0 0 47 47" fill="none" xmlns="http://www.w3.org/2000/svg">
<path d="M41.6283 21.4672C42.5565 22.6814 42.5565 24.3205 41.6283 25.5327C38.7045 29.3495 31.6898 37.2083 23.5 37.2083C15.3103 37.2083 8.2955 29.3495 5.37171 25.5327C4.92009 24.9514 4.67493 24.2362 4.67493 23.5C4.67493 22.7638 4.92009 22.0486 5.37171 21.4672C8.2955 17.6505 15.3103 9.79167 23.5 9.79167C31.6898 9.79167 38.7045 17.6505 41.6283 21.4672V21.4672Z" stroke="#0B0000" stroke-width="3.91667" stroke-linecap="round" stroke-linejoin="round"/>
<path d="M23.5 29.375C26.7447 29.375 29.375 26.7447 29.375 23.5C29.375 20.2553 26.7447 17.625 23.5 17.625C20.2553 17.625 17.625 20.2553 17.625 23.5C17.625 26.7447 20.2553 29.375 23.5 29.375Z" stroke="#0B0000" stroke-width="3.91667" stroke-linecap="round" stroke-linejoin="round"/>
</svg>
