<svg width="47" height="47" viewBox="0 0 47 47" fill="none" xmlns="http://www.w3.org/2000/svg">
<path d="M41.6282 21.4672C42.5564 22.6814 42.5564 24.3205 41.6282 25.5327C38.7044 29.3495 31.6896 37.2083 23.4999 37.2083C15.3101 37.2083 8.29538 29.3495 5.37159 25.5327C4.91996 24.9514 4.6748 24.2362 4.6748 23.5C4.6748 22.7638 4.91996 22.0486 5.37159 21.4672C8.29538 17.6505 15.3101 9.79167 23.4999 9.79167C31.6896 9.79167 38.7044 17.6505 41.6282 21.4672V21.4672Z" stroke="#A702E1" stroke-width="3.91667" stroke-linecap="round" stroke-linejoin="round"/>
<path d="M23.5 29.375C26.7447 29.375 29.375 26.7447 29.375 23.5C29.375 20.2553 26.7447 17.625 23.5 17.625C20.2553 17.625 17.625 20.2553 17.625 23.5C17.625 26.7447 20.2553 29.375 23.5 29.375Z" stroke="#A702E1" stroke-width="3.91667" stroke-linecap="round" stroke-linejoin="round"/>
</svg>
