<svg width="47" height="47" viewBox="0 0 47 47" fill="none" xmlns="http://www.w3.org/2000/svg">
<g clip-path="url(#clip0_362_1159)">
<path d="M23.5 39.48C32.3255 39.48 39.48 32.3255 39.48 23.5C39.48 14.6745 32.3255 7.52 23.5 7.52C14.6745 7.52 7.52002 14.6745 7.52002 23.5C7.52002 32.3255 14.6745 39.48 23.5 39.48Z" stroke="#0B0000" stroke-width="0.979167" stroke-linecap="round" stroke-linejoin="round"/>
<path d="M33.8891 41.4971L36.0825 33.2917L36.2391 33.0763L43.5731 28.8365L39.3529 21.5417V21.2675L41.5462 13.0915L33.2918 10.9177L33.1156 10.7708L28.8758 3.42708L21.5418 7.64729L21.2677 7.69625L13.1112 5.50292L10.9179 13.7083L10.7612 13.9238L3.42725 18.1244L7.64745 25.4583C7.64745 25.5465 7.64745 25.6444 7.69641 25.7325L5.50308 33.889L13.7085 36.0823L13.9239 36.239L18.1637 43.5729L25.4585 39.3527H25.7327L33.8891 41.4971Z" stroke="#0B0000" stroke-width="0.979167" stroke-linecap="round" stroke-linejoin="round"/>
</g>
<defs>
<clipPath id="clip0_362_1159">
<rect width="47" height="47" fill="white"/>
</clipPath>
</defs>
</svg>
