<svg width="47" height="47" viewBox="0 0 47 47" fill="none" xmlns="http://www.w3.org/2000/svg">
<g clip-path="url(#clip0_362_705)">
<path d="M23.5 39.48C32.3255 39.48 39.48 32.3255 39.48 23.5C39.48 14.6745 32.3255 7.52 23.5 7.52C14.6745 7.52 7.52002 14.6745 7.52002 23.5C7.52002 32.3255 14.6745 39.48 23.5 39.48Z" stroke="#0B0000" stroke-width="0.979167" stroke-linecap="round" stroke-linejoin="round"/>
<path d="M33.889 41.4971L36.0823 33.2917L36.239 33.0763L43.573 28.8365L39.3528 21.5417V21.2675L41.5461 13.0915L33.2917 10.9177L33.1155 10.7708L28.8757 3.42708L21.5417 7.64729L21.2675 7.69625L13.1111 5.50292L10.9177 13.7083L10.7611 13.9238L3.42712 18.1244L7.64733 25.4583C7.64733 25.5465 7.64733 25.6444 7.69629 25.7325L5.50296 33.889L13.7084 36.0823L13.9238 36.239L18.1636 43.5729L25.4584 39.3527H25.7325L33.889 41.4971Z" stroke="#0B0000" stroke-width="0.979167" stroke-linecap="round" stroke-linejoin="round"/>
</g>
<defs>
<clipPath id="clip0_362_705">
<rect width="47" height="47" fill="white"/>
</clipPath>
</defs>
</svg>
