<svg width="47" height="47" viewBox="0 0 47 47" fill="none" xmlns="http://www.w3.org/2000/svg">
<g clip-path="url(#clip0_362_1074)">
<path d="M23.5 39.48C32.3255 39.48 39.48 32.3255 39.48 23.5C39.48 14.6745 32.3255 7.52 23.5 7.52C14.6745 7.52 7.52 14.6745 7.52 23.5C7.52 32.3255 14.6745 39.48 23.5 39.48Z" stroke="#0B0000" stroke-width="0.979167" stroke-linecap="round" stroke-linejoin="round"/>
<path d="M33.889 41.4971L36.0823 33.2917L36.239 33.0763L43.5729 28.8365L39.3527 21.5417V21.2675L41.546 13.0915L33.2917 10.9177L33.1154 10.7708L28.8756 3.42708L21.5417 7.64729L21.2675 7.69625L13.111 5.50292L10.9177 13.7083L10.761 13.9238L3.42708 18.1244L7.64729 25.4583C7.64729 25.5465 7.64729 25.6444 7.69625 25.7325L5.50292 33.889L13.7083 36.0823L13.9237 36.239L18.1635 43.5729L25.4583 39.3527H25.7325L33.889 41.4971Z" stroke="#0B0000" stroke-width="0.979167" stroke-linecap="round" stroke-linejoin="round"/>
</g>
<defs>
<clipPath id="clip0_362_1074">
<rect width="47" height="47" fill="white"/>
</clipPath>
</defs>
</svg>
