<svg width="47" height="47" viewBox="0 0 47 47" fill="none" xmlns="http://www.w3.org/2000/svg">
<path d="M5.87496 7.83333C5.87496 8.91489 6.75173 9.79167 7.83329 9.79167C8.91485 9.79167 9.79163 8.91489 9.79163 7.83333C9.79163 6.75178 8.91485 5.875 7.83329 5.875C6.75173 5.875 5.87496 6.75178 5.87496 7.83333Z" stroke="#0B0000" stroke-width="3.91667"/>
<path d="M21.5417 7.83333C21.5417 8.91489 22.4185 9.79167 23.5 9.79167C24.5816 9.79167 25.4584 8.91489 25.4584 7.83333C25.4584 6.75178 24.5816 5.875 23.5 5.875C22.4185 5.875 21.5417 6.75178 21.5417 7.83333Z" stroke="#0B0000" stroke-width="3.91667"/>
<path d="M37.2083 7.83333C37.2083 8.91489 38.0851 9.79167 39.1667 9.79167C40.2482 9.79167 41.125 8.91489 41.125 7.83333C41.125 6.75178 40.2482 5.875 39.1667 5.875C38.0851 5.875 37.2083 6.75178 37.2083 7.83333Z" stroke="#0B0000" stroke-width="3.91667"/>
<path d="M5.87496 23.5C5.87496 24.5816 6.75173 25.4583 7.83329 25.4583C8.91485 25.4583 9.79163 24.5816 9.79163 23.5C9.79163 22.4184 8.91485 21.5417 7.83329 21.5417C6.75173 21.5417 5.87496 22.4184 5.87496 23.5Z" stroke="#0B0000" stroke-width="3.91667"/>
<path d="M21.5417 23.5C21.5417 24.5816 22.4185 25.4583 23.5 25.4583C24.5816 25.4583 25.4584 24.5816 25.4584 23.5C25.4584 22.4184 24.5816 21.5417 23.5 21.5417C22.4185 21.5417 21.5417 22.4184 21.5417 23.5Z" stroke="#0B0000" stroke-width="3.91667"/>
<path d="M37.2083 23.5C37.2083 24.5816 38.0851 25.4583 39.1667 25.4583C40.2482 25.4583 41.125 24.5816 41.125 23.5C41.125 22.4184 40.2482 21.5417 39.1667 21.5417C38.0851 21.5417 37.2083 22.4184 37.2083 23.5Z" stroke="#0B0000" stroke-width="3.91667"/>
<path d="M5.87496 39.1667C5.87496 40.2482 6.75173 41.125 7.83329 41.125C8.91485 41.125 9.79163 40.2482 9.79163 39.1667C9.79163 38.0851 8.91485 37.2083 7.83329 37.2083C6.75173 37.2083 5.87496 38.0851 5.87496 39.1667Z" stroke="#0B0000" stroke-width="3.91667"/>
<path d="M21.5417 39.1667C21.5417 40.2482 22.4185 41.125 23.5 41.125C24.5816 41.125 25.4584 40.2482 25.4584 39.1667C25.4584 38.0851 24.5816 37.2083 23.5 37.2083C22.4185 37.2083 21.5417 38.0851 21.5417 39.1667Z" stroke="#0B0000" stroke-width="3.91667"/>
<path d="M37.2083 39.1667C37.2083 40.2482 38.0851 41.125 39.1667 41.125C40.2482 41.125 41.125 40.2482 41.125 39.1667C41.125 38.0851 40.2482 37.2083 39.1667 37.2083C38.0851 37.2083 37.2083 38.0851 37.2083 39.1667Z" stroke="#0B0000" stroke-width="3.91667"/>
</svg>
