<svg width="47" height="47" viewBox="0 0 47 47" fill="none" xmlns="http://www.w3.org/2000/svg">
<g clip-path="url(#clip0_362_1070)">
<path fill-rule="evenodd" clip-rule="evenodd" d="M8.38631 46.5711C8.1809 46.7771 7.91896 46.9174 7.6337 46.9743C7.34844 47.0312 7.05272 47.0021 6.78402 46.8907C6.51531 46.7793 6.28573 46.5906 6.12438 46.3486C5.96303 46.1066 5.87717 45.8221 5.87769 45.5312V41.125H1.47144C1.18057 41.1255 0.896089 41.0397 0.65407 40.8783C0.412052 40.717 0.223393 40.4874 0.112011 40.2187C0.000627896 39.95 -0.0284625 39.6542 0.0284275 39.369C0.0853174 39.0837 0.225626 38.8218 0.431565 38.6164L4.83781 34.2101C4.97446 34.0738 5.13664 33.9658 5.31507 33.8922C5.4935 33.8186 5.68468 33.7809 5.87769 33.7812H11.1446L12.7015 32.2244C10.4367 29.8685 8.8005 27.5831 7.696 25.4094C5.35188 20.7828 5.41944 16.6086 7.07031 13.3891C10.0666 7.53469 18.1564 5.31394 23.5027 9.49694C27.1746 6.61819 32.1507 6.77094 35.8754 9.05044L39.0479 5.875L35.6845 2.50863C35.4787 2.30338 35.3385 2.04171 35.2815 1.75673C35.2245 1.47175 35.2534 1.17627 35.3644 0.907686C35.4754 0.639103 35.6636 0.409493 35.9052 0.247917C36.1467 0.0863407 36.4308 6.17312e-05 36.7214 0L45.5339 0C45.9235 0 46.2971 0.154743 46.5725 0.430187C46.8479 0.705631 47.0027 1.07921 47.0027 1.46875V10.2812C47.0032 10.5721 46.9174 10.8566 46.756 11.0986C46.5946 11.3406 46.3651 11.5293 46.0964 11.6407C45.8277 11.7521 45.5319 11.7812 45.2467 11.7243C44.9614 11.6674 44.6995 11.5271 44.4941 11.3211L41.1277 7.95181L38.1726 10.9069C38.8658 11.6354 39.4651 12.4668 39.9351 13.3891C41.5859 16.6086 41.6535 20.7828 39.3094 25.4094C36.9799 30.0007 32.2741 35.0679 24.3134 40.3319L23.5027 40.8665L22.6919 40.3319C19.9103 38.5198 17.2733 36.4946 14.8048 34.2747L13.2214 35.861V41.125C13.2218 41.318 13.1841 41.5092 13.1105 41.6876C13.0369 41.8661 12.9289 42.0282 12.7926 42.1649L8.38631 46.5711ZM16.8845 32.195C18.968 34.0607 21.1795 35.7785 23.5027 37.3356C30.7172 32.4417 34.7445 27.9151 36.6891 24.0816C38.6837 20.1454 38.4722 16.9729 37.3207 14.7257C34.9208 10.0404 28.2526 8.69206 24.5543 12.4902L23.5027 13.5712L22.4511 12.4902C18.7528 8.69206 12.0817 10.0404 9.68469 14.7257C8.53319 16.9758 8.32169 20.1454 10.3163 24.0816C11.2651 25.9499 12.7103 27.9885 14.7783 30.1476L20.2597 24.6632C20.5355 24.3875 20.9095 24.2325 21.2996 24.2325C21.6896 24.2325 22.0636 24.3875 22.3394 24.6632C22.6152 24.939 22.7702 25.3131 22.7702 25.7031C22.7702 26.0932 22.6152 26.4672 22.3394 26.743L16.8845 32.195Z" fill="#0B0000"/>
</g>
<defs>
<clipPath id="clip0_362_1070">
<rect width="47" height="47" fill="white"/>
</clipPath>
</defs>
</svg>
