<svg width="36" height="32" viewBox="0 0 36 32" fill="none" xmlns="http://www.w3.org/2000/svg">
<g clip-path="url(#clip0_152_1494)">
<path d="M22.22 20.726C22.1419 20.7154 22.0624 20.7239 21.9883 20.7509C21.9143 20.7779 21.8479 20.8226 21.795 20.881C21.7412 20.9384 21.7017 21.0078 21.6798 21.0834C21.6579 21.159 21.6542 21.2387 21.669 21.316C21.945 22.766 22.874 24.756 25.726 25.995C26.064 26.141 26.586 26.255 27.248 26.398C29.726 26.934 33.87 27.832 34.888 31.63C34.9051 31.6935 34.9345 31.753 34.9746 31.8051C35.0146 31.8573 35.0646 31.901 35.1215 31.9338C35.1785 31.9666 35.2414 31.9879 35.3066 31.9964C35.3718 32.005 35.438 32.0006 35.5015 31.9835C35.565 31.9664 35.6245 31.937 35.6766 31.8969C35.7288 31.8569 35.7725 31.8069 35.8053 31.75C35.8381 31.693 35.8594 31.6301 35.8679 31.5649C35.8765 31.4997 35.8721 31.4335 35.855 31.37C34.678 26.983 29.983 25.966 27.46 25.42C26.876 25.293 26.371 25.184 26.124 25.076C24.41 24.332 23.303 23.228 22.823 21.79C27.585 22.144 29.741 20.247 29.836 20.161C29.8946 20.108 29.9397 20.0418 29.9678 19.9679C29.9959 19.8941 30.006 19.8146 29.9974 19.736C29.9888 19.6575 29.9618 19.5821 29.9184 19.516C29.875 19.45 29.8166 19.3951 29.748 19.356C27 17.786 27 12.361 27 10.318C27 4.605 23.152 0.0759989 18.219 0.0049989C18.172 0.00343479 18.125 0.00243472 18.078 0.0019989H18.077C13.072 0.0299989 9 4.564 9 10.11C9 12.153 9 17.579 6.252 19.148C6.18116 19.1891 6.12145 19.247 6.07804 19.3164C6.03464 19.3859 6.00886 19.4649 6.00295 19.5466C5.99703 19.6283 6.01116 19.7103 6.04411 19.7853C6.07706 19.8603 6.12783 19.9261 6.192 19.977C6.33 20.084 9.38 22.418 13.133 21.709C12.631 23.087 11.539 24.147 9.875 24.87C9.634 24.975 9.154 25.09 8.598 25.222C6.058 25.826 1.329 26.951 0.145002 31.369C0.127996 31.4325 0.123663 31.4987 0.132249 31.5639C0.140836 31.6291 0.162174 31.6919 0.195046 31.7488C0.261434 31.8638 0.37077 31.9477 0.499002 31.982C0.627235 32.0163 0.763858 31.9983 0.878818 31.932C0.993778 31.8656 1.07766 31.7562 1.112 31.628C2.141 27.784 6.329 26.789 8.83 26.193C9.457 26.044 9.952 25.926 10.274 25.787C13.126 24.548 14.054 22.558 14.331 21.108C14.3474 21.0231 14.3414 20.9353 14.3135 20.8534C14.2856 20.7715 14.2369 20.6983 14.172 20.641C14.1077 20.5832 14.0293 20.5432 13.9448 20.525C13.8603 20.5068 13.7724 20.5109 13.69 20.537C10.983 21.389 8.482 20.217 7.389 19.567C10 17.381 10 12.35 10 10.11C10 5.113 13.626 1.027 18.12 0.999999L18.226 1.006C22.658 1.069 26 5.072 26 10.318C26 12.559 26 17.601 28.622 19.787C27.719 20.303 25.66 21.138 22.22 20.726Z" fill="black"/>
</g>
<defs>
<clipPath id="clip0_152_1494">
<rect width="36" height="32" fill="white"/>
</clipPath>
</defs>
</svg>
