<svg width="48" height="47" viewBox="0 0 48 47" fill="none" xmlns="http://www.w3.org/2000/svg">
<path d="M16.7756 2.42436C16.4451 2.42894 16.1054 2.4574 15.7474 2.51248C13.9574 2.78603 12.7457 3.33406 12.0572 4.02254C11.3687 4.71193 11.0933 5.54453 11.2402 6.77644C11.3595 7.73939 11.534 8.22684 11.7267 8.54262C11.9287 8.85932 12.1949 9.08146 12.6906 9.45508C13.6453 10.1711 15.2058 11.3553 17.2713 14.5406C18.0148 14.7609 18.6299 14.7334 19.2541 14.5314C19.8049 14.357 20.3556 14.0357 20.9064 13.6227C20.6127 12.4109 20.7963 11.2635 21.0441 10.2445C21.3379 9.04842 21.6867 7.97348 21.6867 6.94811C21.6867 4.66695 20.0619 2.53268 17.0968 2.42711C16.9959 2.42344 16.8857 2.42252 16.7756 2.42436ZM20.9156 15.5963C20.5484 15.7982 20.172 15.9818 19.759 16.1104C19.2908 16.2572 18.7859 16.3398 18.2718 16.3398L22.522 31.5414L25.1933 30.8713L20.9156 15.5963ZM32.0597 30.9539C31.922 30.9539 31.7752 30.9723 31.6283 31.009L17.0509 34.3687C15.4904 34.7268 15.2058 36.3791 15.8576 37.3521C14.3338 37.802 13.9574 39.5186 14.5816 40.6477C11.8736 41.1434 12.0664 45.0172 15.1875 45.0172H35.1441C38.4672 45.0172 38.4672 40.5926 35.1441 40.5926H25.7992L34.3547 39.592C37.283 39.2523 36.8974 34.8553 33.9599 35.1949L26.6345 36.0486L26.607 35.9477L32.2617 34.6533C34.5015 34.1393 34.1252 30.9998 32.1515 30.9539H32.0597Z" fill="#0B0000"/>
</svg>
