<svg width="47" height="47" viewBox="0 0 47 47" fill="none" xmlns="http://www.w3.org/2000/svg">
<path d="M9 0V42.4102H36.7227V0H9ZM11.7539 2.75391H33.9688V39.6562H11.7539V2.75391ZM22.8613 5.875C20.7225 5.875 18.7672 7.02246 17.2893 8.98691C15.8205 10.9514 14.875 13.7236 14.875 16.7988C14.875 19.874 15.8205 22.6463 17.2893 24.6107C18.7672 26.5752 20.7225 27.7227 22.8613 27.7227C25.0002 27.7227 26.9555 26.5752 28.4334 24.6107C29.9021 22.6463 30.8477 19.874 30.8477 16.7988C30.8477 13.7236 29.9021 10.9514 28.4334 8.98691C26.9555 7.02246 25.0002 5.875 22.8613 5.875ZM16.9863 15.9727H28.7363V17.625H16.9863V15.9727ZM21.3926 20.3789H24.3301V22.0312H21.3926V20.3789ZM17.7482 27.4656C17.2801 27.64 16.8303 27.8236 16.408 28.0164C15.4441 28.457 14.618 28.9344 14.0764 29.3658C13.5348 29.7881 13.4062 30.2012 13.4062 30.0176V38.0039H32.3164V30.0176C32.3164 30.2012 32.1879 29.7881 31.6463 29.3658C31.1047 28.9344 30.2785 28.457 29.3146 28.0164C28.8924 27.8236 28.4426 27.64 27.9744 27.4656C26.5057 28.6682 24.7523 29.375 22.8613 29.375C20.9703 29.375 19.217 28.6682 17.7482 27.4656Z" fill="#0B0000"/>
</svg>
