<svg width="47" height="48" viewBox="0 0 47 48" fill="none" xmlns="http://www.w3.org/2000/svg">
<path d="M1.81836 1.78148L4.45752 7.27094L6.51102 6.62102L7.22428 4.58772L1.81836 1.78148ZM45.1823 1.78148L39.7754 4.58863L40.4915 6.62102L42.5385 7.27002L45.1823 1.78148ZM23.4999 4.06539C21.6639 4.06539 18.396 5.44234 15.7522 7.55643C13.1085 9.67418 11.1073 12.4611 11.1073 14.9855C11.1073 16.7939 11.6213 19.8324 12.4751 23.2932L16.6151 26.0471L15.6971 27.424L13.1176 25.7074C13.7786 28.0666 14.5772 30.5268 15.4585 32.8676C16.7344 36.2273 18.1848 39.3576 19.6444 41.5883C20.3788 42.7082 21.1131 43.5986 21.7833 44.177C22.4534 44.7553 23.0409 45.0031 23.4999 45.0031C23.9588 45.0031 24.5463 44.7553 25.2165 44.177C25.8866 43.5986 26.621 42.7082 27.3553 41.5883C28.8149 39.3576 30.2653 36.2273 31.5413 32.8676C32.4225 30.5268 33.2212 28.0666 33.8821 25.7074L31.3026 27.424L30.3846 26.0471L34.5247 23.2932C35.3784 19.8324 35.8924 16.7939 35.8924 14.9855C35.8924 12.4611 33.8913 9.67418 31.2475 7.55643C28.6038 5.44234 25.3358 4.06539 23.4999 4.06539ZM23.4999 5.21928C23.719 5.21928 23.9291 5.30632 24.0841 5.46126C24.239 5.6162 24.326 5.82633 24.326 6.04545C24.326 6.26456 24.239 6.4747 24.0841 6.62964C23.9291 6.78458 23.719 6.87162 23.4999 6.87162C23.2807 6.87162 23.0706 6.78458 22.9157 6.62964C22.7607 6.4747 22.6737 6.26456 22.6737 6.04545C22.6737 5.82633 22.7607 5.6162 22.9157 5.46126C23.0706 5.30632 23.2807 5.21928 23.4999 5.21928ZM38.8942 7.08459L35.9292 10.1387C36.2505 10.6252 36.535 11.1301 36.7737 11.6441L40.0784 8.23481L39.1971 7.95482L38.8942 7.08459ZM7.75027 7.10754L6.56426 8.25775L10.1159 11.9104C10.3362 11.3871 10.6116 10.873 10.9237 10.3682L7.75027 7.10754ZM19.7546 7.14977L23.4999 12.1398L27.2452 7.14977L28.5671 8.14117L23.4999 14.8938L18.4327 8.14117L19.7546 7.14977ZM23.4999 7.64547C23.719 7.64547 23.9291 7.73251 24.0841 7.88745C24.239 8.04239 24.326 8.25253 24.326 8.47164C24.326 8.69075 24.239 8.9009 24.0841 9.05583C23.9291 9.21077 23.719 9.29781 23.4999 9.29781C23.2807 9.29781 23.0706 9.21077 22.9157 9.05583C22.7607 8.9009 22.6737 8.69075 22.6737 8.47164C22.6737 8.25253 22.7607 8.04239 22.9157 7.88745C23.0706 7.73251 23.2807 7.64547 23.4999 7.64547ZM13.8612 13.5168H15.5135C15.5135 13.985 15.5319 14.4715 15.5686 14.9764C16.1102 14.4715 16.8354 14.1594 17.6249 14.1594C19.2864 14.1594 20.6542 15.5271 20.6542 17.1887C20.6542 18.8502 19.2864 20.218 17.6249 20.218C17.276 20.218 16.9456 20.1537 16.6335 20.0527C17.4963 22.4303 18.9008 24.6334 21.0213 26.0471L20.1034 27.424C15.3483 24.2479 13.8612 18.1066 13.8612 13.5168ZM31.4862 13.5168H33.1385C33.1385 18.1066 31.6514 24.2479 26.8963 27.424L25.9784 26.0471C28.0989 24.6334 29.5034 22.4303 30.3663 20.0527C30.0542 20.1537 29.7237 20.218 29.3749 20.218C27.7133 20.218 26.3456 18.8502 26.3456 17.1887C26.3456 15.5271 27.7133 14.1594 29.3749 14.1594C30.1643 14.1594 30.8895 14.4715 31.4311 14.9764C31.4678 14.4715 31.4862 13.985 31.4862 13.5168ZM17.6249 15.8117C16.8538 15.8117 16.2479 16.4176 16.2479 17.1887C16.2479 17.9598 16.8538 18.5656 17.6249 18.5656C18.396 18.5656 19.0018 17.9598 19.0018 17.1887C19.0018 16.4176 18.396 15.8117 17.6249 15.8117ZM29.3749 15.8117C28.6038 15.8117 27.9979 16.4176 27.9979 17.1887C27.9979 17.9598 28.6038 18.5656 29.3749 18.5656C30.146 18.5656 30.7518 17.9598 30.7518 17.1887C30.7518 16.4176 30.146 15.8117 29.3749 15.8117ZM22.6737 16.4543H24.326V22.4578L26.0702 21.5857L26.8046 23.0729L24.326 24.3121V41.423H22.6737V24.3121L20.1952 23.0729L20.9296 21.5857L22.6737 22.4578V16.4543ZM18.5337 28.5807C19.2405 28.5531 19.8372 28.9938 20.2594 29.5078C20.7368 30.1045 21.0948 30.8848 21.2967 31.7844C21.4987 32.6932 21.5079 33.5469 21.3335 34.2904C21.1407 35.034 20.7092 35.7775 19.8831 35.9611C19.0477 36.1539 18.3317 35.6582 17.8544 35.0707C17.377 34.474 17.019 33.6938 16.8171 32.7941C16.6151 31.8854 16.6059 31.0316 16.7803 30.2881C16.9639 29.5537 17.3954 28.801 18.2307 28.6174C18.3317 28.5898 18.4419 28.5807 18.5337 28.5807ZM28.4661 28.5807C28.5579 28.5898 28.668 28.599 28.769 28.6266C29.6044 28.8102 30.0266 29.5537 30.2194 30.2973C30.403 31.0408 30.3846 31.8945 30.1827 32.7941C29.9807 33.7029 29.6319 34.474 29.1454 35.0799C28.6588 35.6582 27.952 36.1539 27.1258 35.9703C26.2905 35.7775 25.8499 35.034 25.6755 34.2996C25.4919 33.5469 25.501 32.6932 25.703 31.7936C25.9049 30.8848 26.2629 30.1137 26.7403 29.517C27.1626 28.9938 27.7592 28.5531 28.4661 28.5807ZM18.5979 30.233C18.5887 30.233 18.5887 30.233 18.5979 30.2422C18.5979 30.233 18.6071 30.233 18.6071 30.233H18.5979ZM18.5979 30.2422C18.5796 30.2605 18.4694 30.3523 18.3868 30.692C18.295 31.1051 18.2766 31.7477 18.4327 32.4361C18.5796 33.1154 18.8733 33.6846 19.1303 34.0242C19.3506 34.2904 19.4883 34.3363 19.5159 34.3455C19.5342 34.3272 19.6444 34.2354 19.727 33.8865C19.8188 33.4734 19.8372 32.8309 19.6811 32.1516C19.5342 31.4723 19.2405 30.8939 18.9743 30.5543C18.754 30.2881 18.6255 30.2514 18.5979 30.2422ZM19.5159 34.3455C19.5067 34.3547 19.5067 34.3547 19.5159 34.3547C19.5251 34.3547 19.5251 34.3547 19.5159 34.3455ZM28.411 30.233C28.4018 30.233 28.4018 30.233 28.411 30.2422C28.411 30.233 28.4202 30.233 28.411 30.233ZM28.411 30.2422C28.3835 30.2422 28.2458 30.2789 28.0254 30.5635C27.7592 30.8939 27.4747 31.4723 27.3186 32.1516C27.1626 32.8309 27.1809 33.4826 27.2727 33.8957C27.3645 34.2262 27.4655 34.3272 27.4838 34.3455C27.5114 34.3363 27.6491 34.2996 27.8694 34.0242C28.1264 33.6938 28.4202 33.1154 28.5762 32.4361C28.7231 31.7568 28.7047 31.1143 28.613 30.692C28.5303 30.3523 28.4202 30.2605 28.411 30.2422ZM27.4838 34.3455C27.4747 34.3547 27.4747 34.3547 27.4838 34.3547C27.493 34.3547 27.493 34.3547 27.4838 34.3455ZM13.751 33.0053L2.43891 44.6727L3.62492 45.8201L14.4028 34.7127C14.2376 34.2996 14.0723 33.8773 13.9163 33.4551C13.8612 33.3082 13.8061 33.1613 13.751 33.0053ZM33.1477 33.2807C33.1294 33.3357 33.1018 33.4 33.0835 33.4551C32.8907 33.9691 32.6887 34.4832 32.4868 34.9881L43.3739 46.2148L44.5672 45.0582L33.1477 33.2807ZM20.5624 37.0168C20.7815 37.0168 20.9916 37.1038 21.1466 37.2588C21.3015 37.4137 21.3885 37.6239 21.3885 37.843C21.3885 38.0621 21.3015 38.2722 21.1466 38.4272C20.9916 38.5821 20.7815 38.6691 20.5624 38.6691C20.3432 38.6691 20.1331 38.5821 19.9782 38.4272C19.8232 38.2722 19.7362 38.0621 19.7362 37.843C19.7362 37.6239 19.8232 37.4137 19.9782 37.2588C20.1331 37.1038 20.3432 37.0168 20.5624 37.0168ZM26.4374 37.0168C26.6565 37.0168 26.8666 37.1038 27.0216 37.2588C27.1765 37.4137 27.2635 37.6239 27.2635 37.843C27.2635 38.0621 27.1765 38.2722 27.0216 38.4272C26.8666 38.5821 26.6565 38.6691 26.4374 38.6691C26.2182 38.6691 26.0081 38.5821 25.8532 38.4272C25.6982 38.2722 25.6112 38.0621 25.6112 37.843C25.6112 37.6239 25.6982 37.4137 25.8532 37.2588C26.0081 37.1038 26.2182 37.0168 26.4374 37.0168Z" fill="#0B0000"/>
</svg>
