<svg width="48" height="47" viewBox="0 0 48 47" fill="none" xmlns="http://www.w3.org/2000/svg">
<path d="M16.7754 2.42436C16.4449 2.42895 16.1053 2.4574 15.7473 2.51248C13.9572 2.78604 12.7455 3.33406 12.057 4.02254C11.3685 4.71193 11.0931 5.54453 11.24 6.77645C11.3594 7.73939 11.5338 8.22684 11.7265 8.54262C11.9285 8.85932 12.1947 9.08146 12.6904 9.45508C13.6451 10.1711 15.2056 11.3553 17.2711 14.5406C18.0146 14.7609 18.6297 14.7334 19.2539 14.5314C19.8047 14.357 20.3555 14.0357 20.9062 13.6227C20.6125 12.4109 20.7961 11.2635 21.0439 10.2445C21.3377 9.04842 21.6865 7.97348 21.6865 6.94811C21.6865 4.66695 20.0617 2.53268 17.0967 2.42711C16.9957 2.42344 16.8855 2.42252 16.7754 2.42436ZM20.9154 15.5963C20.5482 15.7982 20.1719 15.9818 19.7588 16.1104C19.2906 16.2572 18.7857 16.3398 18.2717 16.3398L22.5219 31.5414L25.1931 30.8713L20.9154 15.5963ZM32.0596 30.9539C31.9219 30.9539 31.775 30.9723 31.6281 31.009L17.0508 34.3687C15.4902 34.7268 15.2056 36.3791 15.8574 37.3521C14.3336 37.802 13.9572 39.5186 14.5814 40.6477C11.8734 41.1434 12.0662 45.0172 15.1873 45.0172H35.1439C38.467 45.0172 38.467 40.5926 35.1439 40.5926H25.799L34.3545 39.592C37.2828 39.2523 36.8973 34.8553 33.9598 35.1949L26.6344 36.0486L26.6068 35.9477L32.2615 34.6533C34.5014 34.1393 34.125 30.9998 32.1514 30.9539H32.0596Z" fill="#0B0000"/>
</svg>
