<svg width="47" height="48" viewBox="0 0 47 48" fill="none" xmlns="http://www.w3.org/2000/svg">
<path d="M1.81848 1.78148L4.45764 7.27094L6.51114 6.62102L7.2244 4.58772L1.81848 1.78148ZM45.1824 1.78148L39.7756 4.58863L40.4916 6.62102L42.5387 7.27002L45.1824 1.78148ZM23.5 4.06539C21.664 4.06539 18.3961 5.44234 15.7523 7.55643C13.1086 9.67418 11.1074 12.4611 11.1074 14.9855C11.1074 16.7939 11.6215 19.8324 12.4752 23.2932L16.6152 26.0471L15.6973 27.424L13.1178 25.7074C13.7787 28.0666 14.5773 30.5268 15.4586 32.8676C16.7346 36.2273 18.1849 39.3576 19.6445 41.5883C20.3789 42.7082 21.1133 43.5986 21.7834 44.177C22.4535 44.7553 23.041 45.0031 23.5 45.0031C23.959 45.0031 24.5465 44.7553 25.2166 44.177C25.8867 43.5986 26.6211 42.7082 27.3555 41.5883C28.815 39.3576 30.2654 36.2273 31.5414 32.8676C32.4226 30.5268 33.2213 28.0666 33.8822 25.7074L31.3027 27.424L30.3848 26.0471L34.5248 23.2932C35.3785 19.8324 35.8926 16.7939 35.8926 14.9855C35.8926 12.4611 33.8914 9.67418 31.2476 7.55643C28.6039 5.44234 25.3359 4.06539 23.5 4.06539ZM23.5 5.21928C23.7191 5.21928 23.9292 5.30632 24.0842 5.46126C24.2391 5.6162 24.3262 5.82633 24.3262 6.04545C24.3262 6.26456 24.2391 6.4747 24.0842 6.62964C23.9292 6.78458 23.7191 6.87162 23.5 6.87162C23.2809 6.87162 23.0707 6.78458 22.9158 6.62964C22.7609 6.4747 22.6738 6.26456 22.6738 6.04545C22.6738 5.82633 22.7609 5.6162 22.9158 5.46126C23.0707 5.30632 23.2809 5.21928 23.5 5.21928ZM38.8943 7.08459L35.9293 10.1387C36.2506 10.6252 36.5351 11.1301 36.7738 11.6441L40.0785 8.23481L39.1973 7.95482L38.8943 7.08459ZM7.7504 7.10754L6.56438 8.25775L10.116 11.9104C10.3363 11.3871 10.6117 10.873 10.9238 10.3682L7.7504 7.10754ZM19.7547 7.14977L23.5 12.1398L27.2453 7.14977L28.5672 8.14117L23.5 14.8938L18.4328 8.14117L19.7547 7.14977ZM23.5 7.64547C23.7191 7.64547 23.9292 7.73251 24.0842 7.88745C24.2391 8.04239 24.3262 8.25253 24.3262 8.47164C24.3262 8.69075 24.2391 8.9009 24.0842 9.05583C23.9292 9.21077 23.7191 9.29781 23.5 9.29781C23.2809 9.29781 23.0707 9.21077 22.9158 9.05583C22.7609 8.9009 22.6738 8.69075 22.6738 8.47164C22.6738 8.25253 22.7609 8.04239 22.9158 7.88745C23.0707 7.73251 23.2809 7.64547 23.5 7.64547ZM13.8613 13.5168H15.5137C15.5137 13.985 15.532 14.4715 15.5687 14.9764C16.1103 14.4715 16.8355 14.1594 17.625 14.1594C19.2865 14.1594 20.6543 15.5271 20.6543 17.1887C20.6543 18.8502 19.2865 20.218 17.625 20.218C17.2762 20.218 16.9457 20.1537 16.6336 20.0527C17.4965 22.4303 18.901 24.6334 21.0215 26.0471L20.1035 27.424C15.3484 24.2479 13.8613 18.1066 13.8613 13.5168ZM31.4863 13.5168H33.1387C33.1387 18.1066 31.6515 24.2479 26.8965 27.424L25.9785 26.0471C28.099 24.6334 29.5035 22.4303 30.3664 20.0527C30.0543 20.1537 29.7238 20.218 29.375 20.218C27.7135 20.218 26.3457 18.8502 26.3457 17.1887C26.3457 15.5271 27.7135 14.1594 29.375 14.1594C30.1644 14.1594 30.8896 14.4715 31.4312 14.9764C31.468 14.4715 31.4863 13.985 31.4863 13.5168ZM17.625 15.8117C16.8539 15.8117 16.248 16.4176 16.248 17.1887C16.248 17.9598 16.8539 18.5656 17.625 18.5656C18.3961 18.5656 19.0019 17.9598 19.0019 17.1887C19.0019 16.4176 18.3961 15.8117 17.625 15.8117ZM29.375 15.8117C28.6039 15.8117 27.998 16.4176 27.998 17.1887C27.998 17.9598 28.6039 18.5656 29.375 18.5656C30.1461 18.5656 30.7519 17.9598 30.7519 17.1887C30.7519 16.4176 30.1461 15.8117 29.375 15.8117ZM22.6738 16.4543H24.3262V22.4578L26.0703 21.5857L26.8047 23.0729L24.3262 24.3121V41.423H22.6738V24.3121L20.1953 23.0729L20.9297 21.5857L22.6738 22.4578V16.4543ZM18.5338 28.5807C19.2406 28.5531 19.8373 28.9938 20.2596 29.5078C20.7369 30.1045 21.0949 30.8848 21.2969 31.7844C21.4988 32.6932 21.508 33.5469 21.3336 34.2904C21.1408 35.034 20.7094 35.7775 19.8832 35.9611C19.0478 36.1539 18.3318 35.6582 17.8545 35.0707C17.3771 34.474 17.0191 33.6938 16.8172 32.7941C16.6152 31.8854 16.606 31.0316 16.7805 30.2881C16.964 29.5537 17.3955 28.801 18.2308 28.6174C18.3318 28.5898 18.442 28.5807 18.5338 28.5807ZM28.4662 28.5807C28.558 28.5898 28.6681 28.599 28.7691 28.6266C29.6045 28.8102 30.0267 29.5537 30.2195 30.2973C30.4031 31.0408 30.3848 31.8945 30.1828 32.7941C29.9808 33.7029 29.632 34.474 29.1455 35.0799C28.659 35.6582 27.9521 36.1539 27.126 35.9703C26.2906 35.7775 25.85 35.034 25.6756 34.2996C25.492 33.5469 25.5012 32.6932 25.7031 31.7936C25.9051 30.8848 26.2631 30.1137 26.7404 29.517C27.1627 28.9938 27.7594 28.5531 28.4662 28.5807ZM18.598 30.233C18.5889 30.233 18.5889 30.233 18.598 30.2422C18.598 30.233 18.6072 30.233 18.6072 30.233H18.598ZM18.598 30.2422C18.5797 30.2605 18.4695 30.3523 18.3869 30.692C18.2951 31.1051 18.2767 31.7477 18.4328 32.4361C18.5797 33.1154 18.8734 33.6846 19.1305 34.0242C19.3508 34.2904 19.4885 34.3363 19.516 34.3455C19.5344 34.3272 19.6445 34.2354 19.7271 33.8865C19.8189 33.4734 19.8373 32.8309 19.6812 32.1516C19.5344 31.4723 19.2406 30.8939 18.9744 30.5543C18.7541 30.2881 18.6256 30.2514 18.598 30.2422ZM19.516 34.3455C19.5068 34.3547 19.5068 34.3547 19.516 34.3547C19.5252 34.3547 19.5252 34.3547 19.516 34.3455ZM28.4111 30.233C28.4019 30.233 28.4019 30.233 28.4111 30.2422C28.4111 30.233 28.4203 30.233 28.4111 30.233ZM28.4111 30.2422C28.3836 30.2422 28.2459 30.2789 28.0256 30.5635C27.7594 30.8939 27.4748 31.4723 27.3187 32.1516C27.1627 32.8309 27.181 33.4826 27.2728 33.8957C27.3646 34.2262 27.4656 34.3272 27.484 34.3455C27.5115 34.3363 27.6492 34.2996 27.8695 34.0242C28.1265 33.6938 28.4203 33.1154 28.5764 32.4361C28.7232 31.7568 28.7049 31.1143 28.6131 30.692C28.5305 30.3523 28.4203 30.2605 28.4111 30.2422ZM27.484 34.3455C27.4748 34.3547 27.4748 34.3547 27.484 34.3547C27.4931 34.3547 27.4931 34.3547 27.484 34.3455ZM13.7512 33.0053L2.43903 44.6727L3.62504 45.8201L14.4029 34.7127C14.2377 34.2996 14.0724 33.8773 13.9164 33.4551C13.8613 33.3082 13.8062 33.1613 13.7512 33.0053ZM33.1478 33.2807C33.1295 33.3357 33.1019 33.4 33.0836 33.4551C32.8908 33.9691 32.6889 34.4832 32.4869 34.9881L43.374 46.2148L44.5674 45.0582L33.1478 33.2807ZM20.5625 37.0168C20.7816 37.0168 20.9917 37.1038 21.1467 37.2588C21.3016 37.4137 21.3887 37.6239 21.3887 37.843C21.3887 38.0621 21.3016 38.2722 21.1467 38.4272C20.9917 38.5821 20.7816 38.6691 20.5625 38.6691C20.3434 38.6691 20.1332 38.5821 19.9783 38.4272C19.8234 38.2722 19.7363 38.0621 19.7363 37.843C19.7363 37.6239 19.8234 37.4137 19.9783 37.2588C20.1332 37.1038 20.3434 37.0168 20.5625 37.0168ZM26.4375 37.0168C26.6566 37.0168 26.8667 37.1038 27.0217 37.2588C27.1766 37.4137 27.2637 37.6239 27.2637 37.843C27.2637 38.0621 27.1766 38.2722 27.0217 38.4272C26.8667 38.5821 26.6566 38.6691 26.4375 38.6691C26.2184 38.6691 26.0082 38.5821 25.8533 38.4272C25.6984 38.2722 25.6113 38.0621 25.6113 37.843C25.6113 37.6239 25.6984 37.4137 25.8533 37.2588C26.0082 37.1038 26.2184 37.0168 26.4375 37.0168Z" fill="#0B0000"/>
</svg>
