<svg width="48" height="47" viewBox="0 0 48 47" fill="none" xmlns="http://www.w3.org/2000/svg">
<path d="M16.7756 2.42436C16.4452 2.42894 16.1055 2.4574 15.7475 2.51248C13.9575 2.78603 12.7457 3.33406 12.0573 4.02254C11.3688 4.71193 11.0934 5.54453 11.2403 6.77644C11.3596 7.73939 11.534 8.22684 11.7268 8.54262C11.9287 8.85932 12.195 9.08146 12.6907 9.45508C13.6453 10.1711 15.2059 11.3553 17.2713 14.5406C18.0149 14.7609 18.6299 14.7334 19.2541 14.5314C19.8049 14.357 20.3557 14.0357 20.9065 13.6227C20.6127 12.4109 20.7963 11.2635 21.0442 10.2445C21.3379 9.04842 21.6868 7.97348 21.6868 6.94811C21.6868 4.66695 20.0619 2.53268 17.0969 2.42711C16.9959 2.42344 16.8858 2.42252 16.7756 2.42436ZM20.9157 15.5963C20.5485 15.7982 20.1721 15.9818 19.759 16.1104C19.2909 16.2572 18.786 16.3398 18.2719 16.3398L22.5221 31.5414L25.1934 30.8713L20.9157 15.5963ZM32.0598 30.9539C31.9221 30.9539 31.7752 30.9723 31.6284 31.009L17.051 34.3687C15.4905 34.7268 15.2059 36.3791 15.8577 37.3521C14.3338 37.802 13.9575 39.5186 14.5817 40.6477C11.8737 41.1434 12.0664 45.0172 15.1875 45.0172H35.1442C38.4672 45.0172 38.4672 40.5926 35.1442 40.5926H25.7993L34.3547 39.592C37.283 39.2523 36.8975 34.8553 33.96 35.1949L26.6346 36.0486L26.6071 35.9477L32.2618 34.6533C34.5016 34.1393 34.1252 30.9998 32.1516 30.9539H32.0598Z" fill="#0B0000"/>
</svg>
