<svg width="47" height="48" viewBox="0 0 47 48" fill="none" xmlns="http://www.w3.org/2000/svg">
<path d="M1.8186 1.78148L4.45776 7.27094L6.51126 6.62102L7.22452 4.58772L1.8186 1.78148ZM45.1825 1.78148L39.7757 4.58863L40.4917 6.62102L42.5388 7.27002L45.1825 1.78148ZM23.5001 4.06539C21.6642 4.06539 18.3962 5.44234 15.7525 7.55643C13.1087 9.67418 11.1075 12.4611 11.1075 14.9855C11.1075 16.7939 11.6216 19.8324 12.4753 23.2932L16.6153 26.0471L15.6974 27.424L13.1179 25.7074C13.7788 28.0666 14.5775 30.5268 15.4587 32.8676C16.7347 36.2273 18.1851 39.3576 19.6446 41.5883C20.379 42.7082 21.1134 43.5986 21.7835 44.177C22.4536 44.7553 23.0411 45.0031 23.5001 45.0031C23.9591 45.0031 24.5466 44.7553 25.2167 44.177C25.8868 43.5986 26.6212 42.7082 27.3556 41.5883C28.8151 39.3576 30.2655 36.2273 31.5415 32.8676C32.4228 30.5268 33.2214 28.0666 33.8823 25.7074L31.3028 27.424L30.3849 26.0471L34.5249 23.2932C35.3786 19.8324 35.8927 16.7939 35.8927 14.9855C35.8927 12.4611 33.8915 9.67418 31.2478 7.55643C28.604 5.44234 25.336 4.06539 23.5001 4.06539ZM23.5001 5.21928C23.7192 5.21928 23.9294 5.30632 24.0843 5.46126C24.2392 5.6162 24.3263 5.82633 24.3263 6.04545C24.3263 6.26456 24.2392 6.4747 24.0843 6.62964C23.9294 6.78458 23.7192 6.87162 23.5001 6.87162C23.281 6.87162 23.0709 6.78458 22.9159 6.62964C22.761 6.4747 22.6739 6.26456 22.6739 6.04545C22.6739 5.82633 22.761 5.6162 22.9159 5.46126C23.0709 5.30632 23.281 5.21928 23.5001 5.21928ZM38.8944 7.08459L35.9294 10.1387C36.2507 10.6252 36.5353 11.1301 36.7739 11.6441L40.0786 8.23481L39.1974 7.95482L38.8944 7.08459ZM7.75052 7.10754L6.5645 8.25775L10.1161 11.9104C10.3364 11.3871 10.6118 10.873 10.9239 10.3682L7.75052 7.10754ZM19.7548 7.14977L23.5001 12.1398L27.2454 7.14977L28.5673 8.14117L23.5001 14.8938L18.4329 8.14117L19.7548 7.14977ZM23.5001 7.64547C23.7192 7.64547 23.9294 7.73251 24.0843 7.88745C24.2392 8.04239 24.3263 8.25253 24.3263 8.47164C24.3263 8.69075 24.2392 8.9009 24.0843 9.05583C23.9294 9.21077 23.7192 9.29781 23.5001 9.29781C23.281 9.29781 23.0709 9.21077 22.9159 9.05583C22.761 8.9009 22.6739 8.69075 22.6739 8.47164C22.6739 8.25253 22.761 8.04239 22.9159 7.88745C23.0709 7.73251 23.281 7.64547 23.5001 7.64547ZM13.8614 13.5168H15.5138C15.5138 13.985 15.5321 14.4715 15.5689 14.9764C16.1105 14.4715 16.8357 14.1594 17.6251 14.1594C19.2866 14.1594 20.6544 15.5271 20.6544 17.1887C20.6544 18.8502 19.2866 20.218 17.6251 20.218C17.2763 20.218 16.9458 20.1537 16.6337 20.0527C17.4966 22.4303 18.9011 24.6334 21.0216 26.0471L20.1036 27.424C15.3485 24.2479 13.8614 18.1066 13.8614 13.5168ZM31.4864 13.5168H33.1388C33.1388 18.1066 31.6517 24.2479 26.8966 27.424L25.9786 26.0471C28.0991 24.6334 29.5036 22.4303 30.3665 20.0527C30.0544 20.1537 29.7239 20.218 29.3751 20.218C27.7136 20.218 26.3458 18.8502 26.3458 17.1887C26.3458 15.5271 27.7136 14.1594 29.3751 14.1594C30.1646 14.1594 30.8898 14.4715 31.4314 14.9764C31.4681 14.4715 31.4864 13.985 31.4864 13.5168ZM17.6251 15.8117C16.854 15.8117 16.2482 16.4176 16.2482 17.1887C16.2482 17.9598 16.854 18.5656 17.6251 18.5656C18.3962 18.5656 19.0021 17.9598 19.0021 17.1887C19.0021 16.4176 18.3962 15.8117 17.6251 15.8117ZM29.3751 15.8117C28.604 15.8117 27.9982 16.4176 27.9982 17.1887C27.9982 17.9598 28.604 18.5656 29.3751 18.5656C30.1462 18.5656 30.7521 17.9598 30.7521 17.1887C30.7521 16.4176 30.1462 15.8117 29.3751 15.8117ZM22.6739 16.4543H24.3263V22.4578L26.0704 21.5857L26.8048 23.0729L24.3263 24.3121V41.423H22.6739V24.3121L20.1954 23.0729L20.9298 21.5857L22.6739 22.4578V16.4543ZM18.5339 28.5807C19.2407 28.5531 19.8374 28.9938 20.2597 29.5078C20.737 30.1045 21.095 30.8848 21.297 31.7844C21.4989 32.6932 21.5081 33.5469 21.3337 34.2904C21.1409 35.034 20.7095 35.7775 19.8833 35.9611C19.048 36.1539 18.3319 35.6582 17.8546 35.0707C17.3773 34.474 17.0192 33.6938 16.8173 32.7941C16.6153 31.8854 16.6062 31.0316 16.7806 30.2881C16.9642 29.5537 17.3956 28.801 18.231 28.6174C18.3319 28.5898 18.4421 28.5807 18.5339 28.5807ZM28.4663 28.5807C28.5581 28.5898 28.6683 28.599 28.7692 28.6266C29.6046 28.8102 30.0269 29.5537 30.2196 30.2973C30.4032 31.0408 30.3849 31.8945 30.1829 32.7941C29.981 33.7029 29.6321 34.474 29.1456 35.0799C28.6591 35.6582 27.9523 36.1539 27.1261 35.9703C26.2907 35.7775 25.8501 35.034 25.6757 34.2996C25.4921 33.5469 25.5013 32.6932 25.7032 31.7936C25.9052 30.8848 26.2632 30.1137 26.7405 29.517C27.1628 28.9938 27.7595 28.5531 28.4663 28.5807ZM18.5982 30.233C18.589 30.233 18.589 30.233 18.5982 30.2422C18.5982 30.233 18.6073 30.233 18.6073 30.233H18.5982ZM18.5982 30.2422C18.5798 30.2605 18.4696 30.3523 18.387 30.692C18.2952 31.1051 18.2769 31.7477 18.4329 32.4361C18.5798 33.1154 18.8735 33.6846 19.1306 34.0242C19.3509 34.2904 19.4886 34.3363 19.5161 34.3455C19.5345 34.3272 19.6446 34.2354 19.7273 33.8865C19.8191 33.4734 19.8374 32.8309 19.6814 32.1516C19.5345 31.4723 19.2407 30.8939 18.9745 30.5543C18.7542 30.2881 18.6257 30.2514 18.5982 30.2422ZM19.5161 34.3455C19.5069 34.3547 19.5069 34.3547 19.5161 34.3547C19.5253 34.3547 19.5253 34.3547 19.5161 34.3455ZM28.4112 30.233C28.4021 30.233 28.4021 30.233 28.4112 30.2422C28.4112 30.233 28.4204 30.233 28.4112 30.233ZM28.4112 30.2422C28.3837 30.2422 28.246 30.2789 28.0257 30.5635C27.7595 30.8939 27.4749 31.4723 27.3189 32.1516C27.1628 32.8309 27.1812 33.4826 27.273 33.8957C27.3648 34.2262 27.4657 34.3272 27.4841 34.3455C27.5116 34.3363 27.6493 34.2996 27.8696 34.0242C28.1267 33.6938 28.4204 33.1154 28.5765 32.4361C28.7233 31.7568 28.705 31.1143 28.6132 30.692C28.5306 30.3523 28.4204 30.2605 28.4112 30.2422ZM27.4841 34.3455C27.4749 34.3547 27.4749 34.3547 27.4841 34.3547C27.4933 34.3547 27.4933 34.3547 27.4841 34.3455ZM13.7513 33.0053L2.43915 44.6727L3.62517 45.8201L14.403 34.7127C14.2378 34.2996 14.0726 33.8773 13.9165 33.4551C13.8614 33.3082 13.8064 33.1613 13.7513 33.0053ZM33.148 33.2807C33.1296 33.3357 33.1021 33.4 33.0837 33.4551C32.8909 33.9691 32.689 34.4832 32.487 34.9881L43.3741 46.2148L44.5675 45.0582L33.148 33.2807ZM20.5626 37.0168C20.7817 37.0168 20.9919 37.1038 21.1468 37.2588C21.3017 37.4137 21.3888 37.6239 21.3888 37.843C21.3888 38.0621 21.3017 38.2722 21.1468 38.4272C20.9919 38.5821 20.7817 38.6691 20.5626 38.6691C20.3435 38.6691 20.1334 38.5821 19.9784 38.4272C19.8235 38.2722 19.7364 38.0621 19.7364 37.843C19.7364 37.6239 19.8235 37.4137 19.9784 37.2588C20.1334 37.1038 20.3435 37.0168 20.5626 37.0168ZM26.4376 37.0168C26.6567 37.0168 26.8669 37.1038 27.0218 37.2588C27.1767 37.4137 27.2638 37.6239 27.2638 37.843C27.2638 38.0621 27.1767 38.2722 27.0218 38.4272C26.8669 38.5821 26.6567 38.6691 26.4376 38.6691C26.2185 38.6691 26.0084 38.5821 25.8534 38.4272C25.6985 38.2722 25.6114 38.0621 25.6114 37.843C25.6114 37.6239 25.6985 37.4137 25.8534 37.2588C26.0084 37.1038 26.2185 37.0168 26.4376 37.0168Z" fill="#0B0000"/>
</svg>
