<svg width="24" height="25" viewBox="0 0 24 25" fill="none" xmlns="http://www.w3.org/2000/svg">
<path fill-rule="evenodd" clip-rule="evenodd" d="M11 1.22266C5.61522 1.22266 1.25 5.58788 1.25 10.9727C1.25 16.3574 5.61522 20.7227 11 20.7227C16.3848 20.7227 20.75 16.3574 20.75 10.9727C20.75 5.58788 16.3848 1.22266 11 1.22266ZM2.75 10.9727C2.75 6.41631 6.44365 2.72266 11 2.72266C15.5563 2.72266 19.25 6.41631 19.25 10.9727C19.25 15.529 15.5563 19.2227 11 19.2227C6.44365 19.2227 2.75 15.529 2.75 10.9727Z" fill="#1E1E1E"/>
<path d="M19.5304 18.4424C19.2375 18.1495 18.7626 18.1495 18.4697 18.4424C18.1768 18.7353 18.1768 19.2102 18.4697 19.5031L22.4696 23.503C22.7625 23.7959 23.2374 23.7959 23.5303 23.503C23.8232 23.2101 23.8232 22.7353 23.5303 22.4424L19.5304 18.4424Z" fill="#1E1E1E"/>
</svg>
