<svg width="25" height="25" viewBox="0 0 25 25" fill="none" xmlns="http://www.w3.org/2000/svg">
<path d="M10.7477 7.43997C10.4535 7.14838 9.97862 7.1505 9.68704 7.4447C9.39545 7.73889 9.39757 8.21376 9.69177 8.50535L11.4547 10.2527C12.1702 10.9618 12.661 11.4498 12.9931 11.8634C13.3157 12.2651 13.4264 12.5231 13.4559 12.7542C13.4743 12.8992 13.4743 13.0461 13.4559 13.1912C13.4264 13.4222 13.3157 13.6803 12.9931 14.082C12.661 14.4955 12.1702 14.9835 11.4547 15.6927L9.69177 17.44C9.39757 17.7315 9.39545 18.2064 9.68704 18.5006C9.97862 18.7948 10.4535 18.7969 10.7477 18.5053L12.5424 16.7266C13.2184 16.0566 13.7709 15.5091 14.1627 15.0212C14.5701 14.5139 14.865 13.9989 14.9438 13.3808C14.9784 13.1098 14.9784 12.8355 14.9438 12.5645C14.865 11.9464 14.5701 11.4314 14.1627 10.9241C13.7709 10.4362 13.2184 9.8887 12.5424 9.21875L10.7477 7.43997Z" fill="#1E1E1E"/>
</svg>
