<svg width="95" height="78" viewBox="0 0 95 78" fill="none" xmlns="http://www.w3.org/2000/svg">
<g clip-path="url(#clip0_44_257)">
<path d="M82.472 7.84875C82.6616 7.84878 82.8494 7.81773 83.0242 7.75742C83.1991 7.6971 83.3575 7.60873 83.4902 7.49749C83.6229 7.38625 83.7273 7.25438 83.7971 7.1096C83.867 6.96483 83.9009 6.81006 83.8969 6.65438V1.17C83.8969 0.859697 83.7468 0.562103 83.4796 0.342685C83.2123 0.123268 82.8499 2.59389e-08 82.472 2.59389e-08H34.111C33.7303 -6.50764e-05 33.3647 0.122419 33.0928 0.341163C32.8208 0.559907 32.6641 0.857475 32.6563 1.17V6.65438V20.0606H23.8985C23.7089 20.0574 23.5204 20.0852 23.3441 20.1426C23.1677 20.1999 23.0071 20.2856 22.8716 20.3946C22.7362 20.5035 22.6285 20.6336 22.5551 20.7772C22.4816 20.9207 22.4438 21.0749 22.4438 21.2306V22.9613H19.9204V21.2306C19.9244 21.0761 19.8904 20.9224 19.8202 20.779C19.75 20.6355 19.6452 20.5052 19.512 20.3959C19.3789 20.2866 19.2202 20.2005 19.0455 20.1429C18.8708 20.0853 18.6836 20.0573 18.4954 20.0606H15.8829C15.2255 20.018 14.5646 20.0875 13.9415 20.2648C13.3185 20.442 12.7468 20.7232 12.2626 21.0907C11.7783 21.4581 11.3918 21.9039 11.1275 22.3999C10.8632 22.8959 10.7268 23.4314 10.7268 23.9728C10.7268 24.5142 10.8632 25.0498 11.1275 25.5458C11.3918 26.0418 11.7783 26.4875 12.2626 26.855C12.7468 27.2224 13.3185 27.5036 13.9415 27.6809C14.5646 27.8581 15.2255 27.9276 15.8829 27.885H18.4954C18.8556 27.8919 19.2051 27.7841 19.4707 27.5842C19.7364 27.3843 19.8975 27.1077 19.9204 26.8125V25.3988H22.4438V26.8125C22.4438 26.9682 22.4816 27.1224 22.5551 27.2659C22.6285 27.4095 22.7362 27.5396 22.8716 27.6486C23.0071 27.7575 23.1677 27.8432 23.3441 27.9005C23.5204 27.9579 23.7089 27.9857 23.8985 27.9825H29.4798V31.4681C27.373 31.9683 25.5201 33.015 24.1983 34.4518C22.8765 35.8886 22.1568 37.6382 22.147 39.4388V57.0375C22.1873 58.8508 22.9447 60.6041 24.3049 62.0331C25.6651 63.462 27.5543 64.4891 29.6876 64.9594V68.9569C29.686 69.7662 29.999 70.5548 30.581 71.208C31.163 71.8612 31.9836 72.3449 32.9235 72.5888V76.83C32.9235 77.1532 33.0799 77.4632 33.3583 77.6918C33.6367 77.9203 34.0142 78.0488 34.4079 78.0488C34.8016 78.0488 35.1791 77.9203 35.4575 77.6918C35.7359 77.4632 35.8923 77.1532 35.8923 76.83V72.5888C36.8322 72.3449 37.6528 71.8612 38.2348 71.208C38.8168 70.5548 39.1298 69.7662 39.1282 68.9569V64.935C41.2564 64.447 43.1326 63.4022 44.472 61.9594C45.8115 60.5165 46.5411 58.7542 46.5501 56.94V39.3412C46.5665 37.5388 45.8604 35.782 44.5406 34.3417C43.2209 32.9013 41.3607 31.8573 39.247 31.3706V27.885H82.5907C82.7789 27.8883 82.9661 27.8603 83.1408 27.8027C83.3155 27.7451 83.4742 27.659 83.6073 27.5497C83.7405 27.4404 83.8453 27.3101 83.9155 27.1666C83.9857 27.0232 84.0197 26.8696 84.0157 26.715V21.2306C84.0197 21.0761 83.9857 20.9224 83.9155 20.779C83.8453 20.6355 83.7405 20.5052 83.6073 20.3959C83.4742 20.2866 83.3155 20.2005 83.1408 20.1429C82.9661 20.0853 82.7789 20.0573 82.5907 20.0606H77.5438V7.87313L82.472 7.84875ZM17.1595 25.5206H15.972C15.7045 25.5482 15.433 25.5288 15.1755 25.4636C14.9179 25.3985 14.6801 25.2891 14.478 25.1427C14.2759 24.9963 14.114 24.8163 14.0031 24.6146C13.8923 24.4129 13.8349 24.1941 13.8349 23.9728C13.8349 23.7515 13.8923 23.5328 14.0031 23.3311C14.114 23.1294 14.2759 22.9493 14.478 22.8029C14.6801 22.6565 14.9179 22.5471 15.1755 22.482C15.433 22.4168 15.7045 22.3974 15.972 22.425H17.1595V25.5206ZM35.6251 7.84875H39.0391V20.0363H35.6251V7.84875ZM36.2188 68.9569C36.2517 69.1665 36.2298 69.3794 36.1546 69.5814C36.0794 69.7835 35.9526 69.9701 35.7826 70.1288C35.6127 70.2874 35.4035 70.4146 35.169 70.5016C34.9345 70.5887 34.6801 70.6337 34.4227 70.6337C34.1654 70.6337 33.911 70.5887 33.6765 70.5016C33.442 70.4146 33.2328 70.2874 33.0629 70.1288C32.8929 69.9701 32.7661 69.7835 32.6909 69.5814C32.6157 69.3794 32.5938 69.1665 32.6266 68.9569V65.2519H36.2188V68.9569ZM43.6407 39.3412V56.94C43.6363 58.3712 43.0034 59.7531 41.8583 60.8321C40.7131 61.9112 39.1325 62.615 37.4063 62.8144H37.0501H32.2704C31.9446 62.8406 31.6165 62.8406 31.2907 62.8144C29.5592 62.6203 27.9715 61.9188 26.8203 60.8393C25.6691 59.7597 25.0321 58.3749 25.0266 56.94V39.3412C25.0399 37.9236 25.6645 36.5558 26.7895 35.4804C27.9145 34.4049 29.4672 33.6916 31.172 33.4669C31.5375 33.4418 31.9049 33.4418 32.2704 33.4669H36.3376C36.7124 33.431 37.0909 33.431 37.4657 33.4669C39.1726 33.6785 40.7287 34.3897 41.8472 35.4692C42.9656 36.5488 43.571 37.924 43.5516 39.3412H43.6407ZM32.3595 31.0294V27.885H36.2485V31.0294H32.3595ZM81.0173 22.425V25.5206H25.3235V22.425H81.0173ZM52.0126 9.99375C51.6319 9.99368 51.2663 10.1162 50.9943 10.3349C50.7223 10.5537 50.5657 10.8512 50.5579 11.1637V20.0606H41.8298V7.87313H57.386V20.0606H53.4376V11.1637C53.43 10.8554 53.2774 10.5614 53.0118 10.3433C52.7462 10.1252 52.3881 9.99998 52.0126 9.99375ZM69.8251 9.99375C69.4471 9.99375 69.0847 10.117 68.8175 10.3364C68.5502 10.5559 68.4001 10.8534 68.4001 11.1637V20.0606H60.2657V7.87313H74.6641V20.0606H71.2501V11.1637C71.2501 10.8534 71.0999 10.5559 70.8327 10.3364C70.5655 10.117 70.203 9.99375 69.8251 9.99375ZM76.1188 5.48438H35.6251V2.4375H81.0173V5.48438H76.1188Z" fill="black"/>
<path d="M28.0547 38.0981C28.0547 38.4107 28.2038 38.7109 28.4703 38.9342C28.7367 39.1575 29.0991 39.2861 29.4797 39.2925H39.0985C39.4922 39.2925 39.8697 39.1641 40.1481 38.9355C40.4265 38.707 40.5829 38.397 40.5829 38.0737C40.5829 37.7505 40.4265 37.4405 40.1481 37.2119C39.8697 36.9834 39.4922 36.855 39.0985 36.855H29.4797C29.2861 36.8581 29.0952 36.8929 28.9182 36.9574C28.7412 37.0219 28.5816 37.1148 28.4489 37.2305C28.3162 37.3463 28.2129 37.4827 28.1453 37.6317C28.0776 37.7807 28.0468 37.9392 28.0547 38.0981ZM39.0985 41.9494H29.4797C29.1018 41.9494 28.7393 42.0726 28.4721 42.292C28.2049 42.5115 28.0547 42.8091 28.0547 43.1194C28.0547 43.4319 28.2038 43.7321 28.4703 43.9554C28.7367 44.1787 29.0991 44.3074 29.4797 44.3137H39.0985C39.2881 44.3138 39.4759 44.2827 39.6508 44.2224C39.8256 44.1621 39.984 44.0737 40.1168 43.9625C40.2495 43.8512 40.3538 43.7194 40.4237 43.5746C40.4935 43.4298 40.5274 43.275 40.5235 43.1194C40.5275 42.9648 40.4934 42.8112 40.4233 42.6677C40.3531 42.5243 40.2483 42.394 40.1151 42.2846C39.982 42.1753 39.8233 42.0893 39.6486 42.0316C39.4738 41.974 39.2867 41.946 39.0985 41.9494ZM39.0985 46.9462H29.4797C29.0991 46.9526 28.7367 47.0813 28.4703 47.3046C28.2038 47.5279 28.0547 47.828 28.0547 48.1406C28.0547 48.4509 28.2049 48.7485 28.4721 48.9679C28.7393 49.1873 29.1018 49.3106 29.4797 49.3106H39.0985C39.2867 49.3139 39.4738 49.2859 39.6486 49.2283C39.8233 49.1707 39.982 49.0846 40.1151 48.9753C40.2483 48.866 40.3531 48.7357 40.4233 48.5922C40.4934 48.4488 40.5275 48.2952 40.5235 48.1406C40.5274 47.9849 40.4935 47.8302 40.4237 47.6854C40.3538 47.5406 40.2495 47.4087 40.1168 47.2975C39.984 47.1862 39.8256 47.0979 39.6508 47.0376C39.4759 46.9772 39.2881 46.9462 39.0985 46.9462ZM39.0985 51.9675H29.4797C29.0991 51.9739 28.7367 52.1025 28.4703 52.3258C28.2038 52.5491 28.0547 52.8493 28.0547 53.1619C28.0547 53.4722 28.2049 53.7698 28.4721 53.9892C28.7393 54.2086 29.1018 54.3319 29.4797 54.3319H39.0985C39.2867 54.3352 39.4738 54.3072 39.6486 54.2496C39.8233 54.1919 39.982 54.1059 40.1151 53.9966C40.2483 53.8873 40.3531 53.757 40.4233 53.6135C40.4934 53.47 40.5275 53.3164 40.5235 53.1619C40.5274 53.0062 40.4935 52.8514 40.4237 52.7066C40.3538 52.5618 40.2495 52.43 40.1168 52.3187C39.984 52.2075 39.8256 52.1191 39.6508 52.0588C39.4759 51.9985 39.2881 51.9674 39.0985 51.9675ZM39.0985 56.9887H29.4797C29.0861 56.9887 28.7085 57.1171 28.4301 57.3457C28.1517 57.5743 27.9954 57.8842 27.9954 58.2075C27.9954 58.5307 28.1517 58.8407 28.4301 59.0693C28.7085 59.2978 29.0861 59.4262 29.4797 59.4262H39.0985C39.4922 59.4262 39.8697 59.2978 40.1481 59.0693C40.4265 58.8407 40.5829 58.5307 40.5829 58.2075C40.5829 57.8842 40.4265 57.5743 40.1481 57.3457C39.8697 57.1171 39.4922 56.9887 39.0985 56.9887Z" fill="black"/>
</g>
<defs>
<clipPath id="clip0_44_257">
<rect width="95" height="78" fill="white"/>
</clipPath>
</defs>
</svg>
