<svg width="95" height="78" viewBox="0 0 95 78" fill="none" xmlns="http://www.w3.org/2000/svg">
<g clip-path="url(#clip0_114_1077)">
<path d="M82.4717 7.84875C82.6614 7.84878 82.8491 7.81773 83.024 7.75742C83.1988 7.6971 83.3573 7.60873 83.49 7.49749C83.6227 7.38625 83.727 7.25438 83.7969 7.1096C83.8667 6.96483 83.9007 6.81006 83.8967 6.65438V1.17C83.8967 0.859697 83.7466 0.562103 83.4793 0.342685C83.2121 0.123268 82.8496 2.59389e-08 82.4717 2.59389e-08H34.1108C33.7301 -6.50764e-05 33.3645 0.122419 33.0925 0.341163C32.8205 0.559907 32.6639 0.857475 32.6561 1.17V6.65438V20.0606H23.8983C23.7087 20.0574 23.5202 20.0852 23.3438 20.1426C23.1675 20.1999 23.0069 20.2856 22.8714 20.3946C22.7359 20.5035 22.6283 20.6336 22.5548 20.7772C22.4814 20.9207 22.4435 21.0749 22.4436 21.2306V22.9613H19.9201V21.2306C19.9242 21.0761 19.8901 20.9224 19.8199 20.779C19.7497 20.6355 19.6449 20.5052 19.5118 20.3959C19.3787 20.2866 19.2199 20.2005 19.0452 20.1429C18.8705 20.0853 18.6834 20.0573 18.4951 20.0606H15.8826C15.2253 20.018 14.5643 20.0875 13.9413 20.2648C13.3182 20.442 12.7466 20.7232 12.2623 21.0907C11.778 21.4581 11.3916 21.9039 11.1273 22.3999C10.863 22.8959 10.7266 23.4314 10.7266 23.9728C10.7266 24.5142 10.863 25.0498 11.1273 25.5458C11.3916 26.0418 11.778 26.4875 12.2623 26.855C12.7466 27.2224 13.3182 27.5036 13.9413 27.6809C14.5643 27.8581 15.2253 27.9276 15.8826 27.885H18.4951C18.8554 27.8919 19.2049 27.7841 19.4705 27.5842C19.7361 27.3843 19.8972 27.1077 19.9201 26.8125V25.3988H22.4436V26.8125C22.4435 26.9682 22.4814 27.1224 22.5548 27.2659C22.6283 27.4095 22.7359 27.5396 22.8714 27.6486C23.0069 27.7575 23.1675 27.8432 23.3438 27.9005C23.5202 27.9579 23.7087 27.9857 23.8983 27.9825H29.4795V31.4681C27.3728 31.9683 25.5199 33.015 24.1981 34.4518C22.8763 35.8886 22.1566 37.6382 22.1467 39.4388V57.0375C22.1871 58.8508 22.9445 60.6041 24.3046 62.0331C25.6648 63.462 27.554 64.4891 29.6873 64.9594V68.9569C29.6858 69.7662 29.9987 70.5548 30.5807 71.208C31.1627 71.8612 31.9834 72.3449 32.9233 72.5888V76.83C32.9233 77.1532 33.0797 77.4632 33.358 77.6918C33.6364 77.9203 34.014 78.0488 34.4076 78.0488C34.8013 78.0488 35.1789 77.9203 35.4573 77.6918C35.7356 77.4632 35.892 77.1532 35.892 76.83V72.5888C36.8319 72.3449 37.6526 71.8612 38.2346 71.208C38.8166 70.5548 39.1295 69.7662 39.128 68.9569V64.935C41.2561 64.447 43.1323 63.4022 44.4718 61.9594C45.8112 60.5165 46.5408 58.7542 46.5498 56.94V39.3412C46.5662 37.5388 45.8601 35.782 44.5404 34.3417C43.2206 32.9013 41.3605 31.8573 39.2467 31.3706V27.885H82.5905C82.7787 27.8883 82.9658 27.8603 83.1405 27.8027C83.3153 27.7451 83.474 27.659 83.6071 27.5497C83.7402 27.4404 83.8451 27.3101 83.9152 27.1666C83.9854 27.0232 84.0195 26.8696 84.0155 26.715V21.2306C84.0195 21.0761 83.9854 20.9224 83.9152 20.779C83.8451 20.6355 83.7402 20.5052 83.6071 20.3959C83.474 20.2866 83.3153 20.2005 83.1405 20.1429C82.9658 20.0853 82.7787 20.0573 82.5905 20.0606H77.5436V7.87313L82.4717 7.84875ZM17.1592 25.5206H15.9717C15.7043 25.5482 15.4328 25.5288 15.1752 25.4636C14.9176 25.3985 14.6799 25.2891 14.4778 25.1427C14.2756 24.9963 14.1138 24.8163 14.0029 24.6146C13.892 24.4129 13.8347 24.1941 13.8347 23.9728C13.8347 23.7515 13.892 23.5328 14.0029 23.3311C14.1138 23.1294 14.2756 22.9493 14.4778 22.8029C14.6799 22.6565 14.9176 22.5471 15.1752 22.482C15.4328 22.4168 15.7043 22.3974 15.9717 22.425H17.1592V25.5206ZM35.6248 7.84875H39.0389V20.0363H35.6248V7.84875ZM36.2186 68.9569C36.2515 69.1665 36.2296 69.3794 36.1544 69.5814C36.0791 69.7835 35.9523 69.9701 35.7824 70.1288C35.6124 70.2874 35.4032 70.4146 35.1687 70.5016C34.9342 70.5887 34.6798 70.6337 34.4225 70.6337C34.1651 70.6337 33.9107 70.5887 33.6763 70.5016C33.4418 70.4146 33.2326 70.2874 33.0626 70.1288C32.8927 69.9701 32.7658 69.7835 32.6906 69.5814C32.6154 69.3794 32.5935 69.1665 32.6264 68.9569V65.2519H36.2186V68.9569ZM43.6405 39.3412V56.94C43.636 58.3712 43.0032 59.7531 41.858 60.8321C40.7129 61.9112 39.1322 62.615 37.4061 62.8144H37.0498H32.2701C31.9444 62.8406 31.6162 62.8406 31.2905 62.8144C29.5589 62.6203 27.9712 61.9188 26.82 60.8393C25.6689 59.7597 25.0318 58.3749 25.0264 56.94V39.3412C25.0397 37.9236 25.6642 36.5558 26.7892 35.4804C27.9142 34.4049 29.4669 33.6916 31.1717 33.4669C31.5372 33.4418 31.9046 33.4418 32.2701 33.4669H36.3373C36.7121 33.431 37.0907 33.431 37.4655 33.4669C39.1723 33.6785 40.7285 34.3897 41.8469 35.4692C42.9654 36.5488 43.5707 37.924 43.5514 39.3412H43.6405ZM32.3592 31.0294V27.885H36.2483V31.0294H32.3592ZM81.017 22.425V25.5206H25.3233V22.425H81.017ZM52.0123 9.99375C51.6316 9.99368 51.266 10.1162 50.9941 10.3349C50.7221 10.5537 50.5654 10.8512 50.5576 11.1637V20.0606H41.8295V7.87313H57.3858V20.0606H53.4373V11.1637C53.4297 10.8554 53.2772 10.5614 53.0116 10.3433C52.746 10.1252 52.3879 9.99998 52.0123 9.99375ZM69.8248 9.99375C69.4469 9.99375 69.0844 10.117 68.8172 10.3364C68.55 10.5559 68.3998 10.8534 68.3998 11.1637V20.0606H60.2655V7.87313H74.6639V20.0606H71.2498V11.1637C71.2498 10.8534 71.0997 10.5559 70.8325 10.3364C70.5652 10.117 70.2028 9.99375 69.8248 9.99375ZM76.1186 5.48438H35.6248V2.4375H81.017V5.48438H76.1186Z" fill="black"/>
<path d="M28.0545 38.0981C28.0544 38.4107 28.2036 38.7109 28.47 38.9342C28.7364 39.1575 29.0989 39.2861 29.4795 39.2925H39.0982C39.4919 39.2925 39.8695 39.1641 40.1479 38.9355C40.4262 38.707 40.5826 38.397 40.5826 38.0737C40.5826 37.7505 40.4262 37.4405 40.1479 37.212C39.8695 36.9834 39.4919 36.855 39.0982 36.855H29.4795C29.2859 36.8581 29.095 36.8929 28.9179 36.9574C28.7409 37.0219 28.5814 37.1148 28.4487 37.2306C28.3159 37.3463 28.2127 37.4827 28.145 37.6317C28.0773 37.7807 28.0465 37.9393 28.0545 38.0981ZM39.0982 41.9494H29.4795C29.1016 41.9494 28.7391 42.0726 28.4719 42.2921C28.2046 42.5115 28.0545 42.8091 28.0545 43.1194C28.0544 43.432 28.2036 43.7321 28.47 43.9554C28.7364 44.1787 29.0989 44.3074 29.4795 44.3137H39.0982C39.2879 44.3138 39.4757 44.2827 39.6505 44.2224C39.8254 44.1621 39.9838 44.0737 40.1165 43.9625C40.2492 43.8512 40.3536 43.7194 40.4234 43.5746C40.4933 43.4298 40.5272 43.2751 40.5232 43.1194C40.5273 42.9648 40.4932 42.8112 40.423 42.6677C40.3528 42.5243 40.248 42.394 40.1149 42.2847C39.9817 42.1753 39.823 42.0893 39.6483 42.0317C39.4736 41.974 39.2865 41.946 39.0982 41.9494ZM39.0982 46.9462H29.4795C29.0989 46.9526 28.7364 47.0813 28.47 47.3046C28.2036 47.5279 28.0544 47.828 28.0545 48.1406C28.0545 48.4509 28.2046 48.7485 28.4719 48.9679C28.7391 49.1874 29.1016 49.3106 29.4795 49.3106H39.0982C39.2865 49.3139 39.4736 49.286 39.6483 49.2283C39.823 49.1707 39.9817 49.0847 40.1149 48.9753C40.248 48.866 40.3528 48.7357 40.423 48.5923C40.4932 48.4488 40.5273 48.2952 40.5232 48.1406C40.5272 47.9849 40.4933 47.8302 40.4234 47.6854C40.3536 47.5406 40.2492 47.4087 40.1165 47.2975C39.9838 47.1863 39.8254 47.0979 39.6505 47.0376C39.4757 46.9773 39.2879 46.9462 39.0982 46.9462ZM39.0982 51.9675H29.4795C29.0989 51.9739 28.7364 52.1025 28.47 52.3258C28.2036 52.5491 28.0544 52.8493 28.0545 53.1619C28.0545 53.4722 28.2046 53.7698 28.4719 53.9892C28.7391 54.2086 29.1016 54.3319 29.4795 54.3319H39.0982C39.2865 54.3352 39.4736 54.3072 39.6483 54.2496C39.823 54.192 39.9817 54.1059 40.1149 53.9966C40.248 53.8873 40.3528 53.757 40.423 53.6135C40.4932 53.4701 40.5273 53.3164 40.5232 53.1619C40.5272 53.0062 40.4933 52.8514 40.4234 52.7066C40.3536 52.5619 40.2492 52.43 40.1165 52.3188C39.9838 52.2075 39.8254 52.1191 39.6505 52.0588C39.4757 51.9985 39.2879 51.9675 39.0982 51.9675ZM39.0982 56.9887H29.4795C29.0858 56.9887 28.7083 57.1171 28.4299 57.3457C28.1515 57.5743 27.9951 57.8843 27.9951 58.2075C27.9951 58.5307 28.1515 58.8407 28.4299 59.0693C28.7083 59.2978 29.0858 59.4262 29.4795 59.4262H39.0982C39.4919 59.4262 39.8695 59.2978 40.1479 59.0693C40.4262 58.8407 40.5826 58.5307 40.5826 58.2075C40.5826 57.8843 40.4262 57.5743 40.1479 57.3457C39.8695 57.1171 39.4919 56.9887 39.0982 56.9887Z" fill="black"/>
</g>
<defs>
<clipPath id="clip0_114_1077">
<rect width="95" height="78" fill="white"/>
</clipPath>
</defs>
</svg>
