<svg width="78" height="55" viewBox="0 0 78 55" fill="none" xmlns="http://www.w3.org/2000/svg">
<g clip-path="url(#clip0_44_254)">
<path d="M67.7137 5.53438C67.8694 5.5344 68.0236 5.5125 68.1671 5.46997C68.3107 5.42744 68.4408 5.36513 68.5497 5.28669C68.6587 5.20826 68.7444 5.11527 68.8017 5.01318C68.8591 4.9111 68.8869 4.80197 68.8837 4.69219V0.825C68.8837 0.606196 68.7604 0.396354 68.541 0.241637C68.3216 0.0869194 68.024 1.82903e-08 67.7137 1.82903e-08H28.0068C27.6942 -4.58872e-05 27.3941 0.0863211 27.1707 0.240564C26.9474 0.394806 26.8188 0.60463 26.8124 0.825V4.69219V14.1453H19.6218C19.4661 14.143 19.3113 14.1627 19.1666 14.2031C19.0218 14.2435 18.8899 14.304 18.7787 14.3808C18.6674 14.4576 18.5791 14.5493 18.5188 14.6506C18.4584 14.7518 18.4274 14.8605 18.4274 14.9703V16.1906H16.3555V14.9703C16.3589 14.8613 16.3309 14.753 16.2733 14.6518C16.2156 14.5507 16.1296 14.4588 16.0203 14.3817C15.911 14.3046 15.7806 14.244 15.6372 14.2033C15.4937 14.1627 15.3401 14.143 15.1855 14.1453H13.0405C12.5008 14.1152 11.9581 14.1643 11.4466 14.2893C10.935 14.4142 10.4657 14.6125 10.0681 14.8716C9.67044 15.1307 9.35316 15.445 9.13615 15.7948C8.91915 16.1445 8.80713 16.5222 8.80713 16.9039C8.80713 17.2857 8.91915 17.6633 9.13615 18.013C9.35316 18.3628 9.67044 18.6771 10.0681 18.9362C10.4657 19.1953 10.935 19.3936 11.4466 19.5186C11.9581 19.6436 12.5008 19.6926 13.0405 19.6625H15.1855C15.4813 19.6674 15.7683 19.5914 15.9864 19.4504C16.2045 19.3094 16.3367 19.1144 16.3555 18.9062V17.9094H18.4274V18.9062C18.4274 19.0161 18.4584 19.1248 18.5188 19.226C18.5791 19.3272 18.6674 19.4189 18.7787 19.4958C18.8899 19.5726 19.0218 19.633 19.1666 19.6735C19.3113 19.7139 19.4661 19.7335 19.6218 19.7312H24.2043V22.1891C22.4746 22.5417 20.9532 23.2798 19.868 24.293C18.7827 25.3061 18.1918 26.5397 18.1837 27.8094V40.2188C18.2168 41.4973 18.8387 42.7337 19.9554 43.7413C21.0722 44.7489 22.6234 45.4731 24.3749 45.8047V48.6234C24.3736 49.1941 24.6306 49.7502 25.1084 50.2108C25.5863 50.6714 26.2601 51.0124 27.0318 51.1844V54.175C27.0318 54.4029 27.1602 54.6215 27.3888 54.7827C27.6173 54.9438 27.9273 55.0344 28.2505 55.0344C28.5738 55.0344 28.8838 54.9438 29.1123 54.7827C29.3409 54.6215 29.4693 54.4029 29.4693 54.175V51.1844C30.241 51.0124 30.9148 50.6714 31.3927 50.2108C31.8705 49.7502 32.1275 49.1941 32.1262 48.6234V45.7875C33.8735 45.4434 35.414 44.7067 36.5137 43.6893C37.6135 42.6719 38.2125 41.4292 38.2199 40.15V27.7406C38.2334 26.4697 37.6536 25.2309 36.57 24.2153C35.4865 23.1996 33.9592 22.4635 32.2237 22.1203V19.6625H67.8112C67.9657 19.6648 68.1194 19.6451 68.2628 19.6045C68.4063 19.5638 68.5366 19.5032 68.6459 19.4261C68.7552 19.349 68.8413 19.2571 68.8989 19.156C68.9565 19.0548 68.9845 18.9465 68.9812 18.8375V14.9703C68.9845 14.8613 68.9565 14.753 68.8989 14.6518C68.8413 14.5507 68.7552 14.4588 68.6459 14.3817C68.5366 14.3046 68.4063 14.244 68.2628 14.2033C68.1194 14.1627 67.9657 14.143 67.8112 14.1453H63.6674V5.55156L67.7137 5.53438ZM14.0887 17.9953H13.1137C12.8941 18.0148 12.6712 18.0011 12.4597 17.9551C12.2482 17.9092 12.053 17.832 11.8871 17.7288C11.7211 17.6256 11.5882 17.4987 11.4972 17.3564C11.4061 17.2142 11.3591 17.0599 11.3591 16.9039C11.3591 16.7479 11.4061 16.5936 11.4972 16.4514C11.5882 16.3092 11.7211 16.1822 11.8871 16.079C12.053 15.9758 12.2482 15.8986 12.4597 15.8527C12.6712 15.8067 12.8941 15.793 13.1137 15.8125H14.0887V17.9953ZM29.2499 5.53438H32.053V14.1281H29.2499V5.53438ZM29.7374 48.6234C29.7644 48.7712 29.7464 48.9213 29.6847 49.0638C29.6229 49.2063 29.5188 49.3379 29.3793 49.4498C29.2397 49.5617 29.068 49.6513 28.8754 49.7127C28.6829 49.7741 28.474 49.8058 28.2627 49.8058C28.0514 49.8058 27.8426 49.7741 27.65 49.7127C27.4575 49.6513 27.2857 49.5617 27.1462 49.4498C27.0067 49.3379 26.9025 49.2063 26.8408 49.0638C26.779 48.9213 26.761 48.7712 26.788 48.6234V46.0109H29.7374V48.6234ZM35.8312 27.7406V40.15C35.8275 41.1592 35.3079 42.1336 34.3677 42.8944C33.4275 43.6553 32.1297 44.1516 30.7124 44.2922H30.4199H26.4955C26.2281 44.3107 25.9587 44.3107 25.6912 44.2922C24.2695 44.1554 22.9659 43.6607 22.0207 42.8995C21.0755 42.1383 20.5525 41.1618 20.548 40.15V27.7406C20.5589 26.741 21.0717 25.7765 21.9954 25.0182C22.9191 24.2599 24.194 23.7569 25.5937 23.5984C25.8938 23.5807 26.1954 23.5807 26.4955 23.5984H29.8349C30.1426 23.5731 30.4535 23.5731 30.7612 23.5984C32.1626 23.7477 33.4403 24.2491 34.3586 25.0104C35.2769 25.7716 35.7739 26.7413 35.758 27.7406H35.8312ZM26.5687 21.8797V19.6625H29.7618V21.8797H26.5687ZM66.5193 15.8125V17.9953H20.7918V15.8125H66.5193ZM42.7049 7.04688C42.3923 7.04683 42.0922 7.1332 41.8689 7.28744C41.6456 7.44168 41.5169 7.6515 41.5106 7.87187V14.1453H34.3443V5.55156H47.1168V14.1453H43.8749V7.87187C43.8687 7.65445 43.7434 7.44715 43.5253 7.29337C43.3073 7.1396 43.0133 7.05127 42.7049 7.04688ZM57.3299 7.04688C57.0196 7.04688 56.722 7.13379 56.5026 7.28851C56.2832 7.44323 56.1599 7.65307 56.1599 7.87187V14.1453H49.4812V5.55156H61.303V14.1453H58.4999V7.87187C58.4999 7.65307 58.3767 7.44323 58.1572 7.28851C57.9378 7.13379 57.6402 7.04688 57.3299 7.04688ZM62.4974 3.86719H29.2499V1.71875H66.5193V3.86719H62.4974Z" fill="black"/>
<path d="M23.0346 26.8641C23.0345 27.0845 23.157 27.2962 23.3758 27.4536C23.5945 27.6111 23.8921 27.7018 24.2046 27.7063H32.1021C32.4253 27.7063 32.7353 27.6158 32.9639 27.4546C33.1924 27.2934 33.3208 27.0748 33.3208 26.8469C33.3208 26.619 33.1924 26.4004 32.9639 26.2393C32.7353 26.0781 32.4253 25.9875 32.1021 25.9875H24.2046C24.0456 25.9897 23.8889 26.0143 23.7435 26.0598C23.5982 26.1052 23.4672 26.1707 23.3582 26.2524C23.2492 26.334 23.1645 26.4302 23.1089 26.5352C23.0533 26.6403 23.0281 26.7521 23.0346 26.8641ZM32.1021 29.5797H24.2046C23.8943 29.5797 23.5967 29.6667 23.3773 29.8214C23.1579 29.9761 23.0346 30.1859 23.0346 30.4047C23.0345 30.6252 23.157 30.8368 23.3758 30.9943C23.5945 31.1517 23.8921 31.2424 24.2046 31.2469H32.1021C32.2578 31.2469 32.412 31.2251 32.5555 31.1825C32.6991 31.14 32.8292 31.0777 32.9381 30.9992C33.0471 30.9208 33.1328 30.8278 33.1901 30.7257C33.2475 30.6236 33.2753 30.5145 33.2721 30.4047C33.2754 30.2958 33.2474 30.1874 33.1898 30.0863C33.1322 29.9851 33.0461 29.8932 32.9368 29.8162C32.8275 29.7391 32.6972 29.6784 32.5537 29.6378C32.4103 29.5971 32.2566 29.5774 32.1021 29.5797ZM32.1021 33.1032H24.2046C23.8921 33.1077 23.5945 33.1984 23.3758 33.3558C23.157 33.5133 23.0345 33.7249 23.0346 33.9454C23.0346 34.1642 23.1579 34.374 23.3773 34.5287C23.5967 34.6834 23.8943 34.7704 24.2046 34.7704H32.1021C32.2566 34.7727 32.4103 34.753 32.5537 34.7123C32.6972 34.6717 32.8275 34.611 32.9368 34.5339C33.0461 34.4569 33.1322 34.365 33.1898 34.2638C33.2474 34.1627 33.2754 34.0543 33.2721 33.9454C33.2753 33.8356 33.2475 33.7265 33.1901 33.6244C33.1328 33.5223 33.0471 33.4293 32.9381 33.3509C32.8292 33.2724 32.6991 33.2101 32.5555 33.1676C32.412 33.125 32.2578 33.1031 32.1021 33.1032ZM32.1021 36.6438H24.2046C23.8921 36.6483 23.5945 36.739 23.3758 36.8965C23.157 37.0539 23.0345 37.2656 23.0346 37.486C23.0346 37.7048 23.1579 37.9146 23.3773 38.0694C23.5967 38.2241 23.8943 38.311 24.2046 38.311H32.1021C32.2566 38.3133 32.4103 38.2936 32.5537 38.253C32.6972 38.2123 32.8275 38.1516 32.9368 38.0746C33.0461 37.9975 33.1322 37.9056 33.1898 37.8045C33.2474 37.7033 33.2754 37.595 33.2721 37.486C33.2753 37.3762 33.2475 37.2671 33.1901 37.165C33.1328 37.0629 33.0471 36.9699 32.9381 36.8915C32.8292 36.813 32.6991 36.7507 32.5555 36.7082C32.412 36.6657 32.2578 36.6438 32.1021 36.6438ZM32.1021 40.1844H24.2046C23.8814 40.1844 23.5714 40.275 23.3428 40.4361C23.1142 40.5973 22.9858 40.8159 22.9858 41.0438C22.9858 41.2717 23.1142 41.4903 23.3428 41.6515C23.5714 41.8126 23.8814 41.9032 24.2046 41.9032H32.1021C32.4253 41.9032 32.7353 41.8126 32.9639 41.6515C33.1924 41.4903 33.3208 41.2717 33.3208 41.0438C33.3208 40.8159 33.1924 40.5973 32.9639 40.4361C32.7353 40.275 32.4253 40.1844 32.1021 40.1844Z" fill="black"/>
</g>
<defs>
<clipPath id="clip0_44_254">
<rect width="78" height="55" fill="white"/>
</clipPath>
</defs>
</svg>
