<svg width="46" height="45" viewBox="0 0 46 45" fill="none" xmlns="http://www.w3.org/2000/svg">
<path d="M39.5234 29.3848V28.0078H40.556C43.0271 28.0078 45.0312 26.0867 45.0312 24.5651C45.0312 24.5651 43.6543 25.2539 41.5885 25.2539C39.3141 25.2539 36.0807 24.0209 36.0807 22.5V16.9922H37.1132C39.5844 16.9922 41.5885 15.0711 41.5885 13.5494C41.5885 13.5494 40.2115 14.2383 38.1458 14.2383C35.8714 14.2383 32.6379 13.0053 32.6379 11.4844V5.97656H33.6705C36.1416 5.97656 38.1458 4.0547 38.1458 2.53381C38.1458 2.53381 36.7688 3.22266 34.703 3.22266C32.4286 3.22266 29.1952 1.98964 29.1952 0.46875H16.8033C16.8033 1.98964 13.5699 3.22266 11.2955 3.22266C9.22973 3.22266 7.85278 2.53381 7.85278 2.53381C7.85278 4.0547 9.85689 5.97656 12.3281 5.97656H13.3606V11.4844C13.3606 13.0053 10.1271 14.2383 7.85278 14.2383C5.78698 14.2383 4.41003 13.5494 4.41003 13.5494C4.41003 15.0703 6.41414 16.9922 8.88531 16.9922H9.91784V22.5C9.91784 24.0209 6.68439 25.2539 4.41003 25.2539C2.3457 25.2539 0.96875 24.5658 0.96875 24.5658C0.96875 26.0867 2.97286 28.0078 5.44403 28.0078H6.47656V33.5156L0.96875 44.5312H45.0312L39.5234 33.5156V29.3848ZM40.0823 36.1572L40.4142 36.7939H38.778L39.9163 38.7047H41.4093L41.7405 39.3429H36.6821L37.7485 41.2537H42.7349L43.0675 41.8904H41.1596L39.9156 44.12H39.2525L40.4958 41.8904H35.8523L34.609 44.12H33.9459L35.1892 41.8904H29.3847L30.6287 44.12H29.9655L28.7215 41.8904H24.0788L25.3214 44.12H24.659L23.4149 41.8904H18.7715L20.0148 44.12H19.3516L18.1083 41.8904H14.6259L13.3819 44.12H12.7195L13.962 41.8904H8.65472L7.41142 44.12H6.74681L7.99011 41.8904H2.93173L3.26441 41.2537H5.50352L6.56909 39.3429H4.25875L4.58995 38.7047H8.73623L7.59869 36.7939H5.58577L5.9177 36.1572H8.73697L10.0647 33.9276H10.7271L9.40011 36.1572H15.3706L14.0443 33.9276H14.7067L16.0337 36.1572H20.6779L19.3502 33.9276H20.0133L21.3403 36.1572H24.6582L25.9852 33.9276H26.6484L25.3206 36.1572H29.9648L31.2918 33.9276H31.9542L30.628 36.1572H36.5992L35.2714 33.9276H35.9338L37.2616 36.1572H40.0823ZM19.8855 4.42777C20.661 3.81016 21.1486 2.87823 23 2.87823C24.8543 2.87823 25.2685 3.77637 26.1145 4.42703C28.1267 5.97583 29.7496 5.96995 30.0096 5.97583H15.9897C16.2496 5.97069 17.935 5.97656 19.8855 4.42777ZM14.0502 7.35352H18.8699V10.1074H20.2468V7.35352H22.3126V10.1074H23.6896V7.35352H25.7554V10.1074H27.1323V7.35352H31.952V11.4844H14.0502V7.35352ZM23 12.9296L28.5849 16.9922H17.4151L23 12.9296ZM11.9844 18.3691V21.123H13.3613V18.3691H17.4922V21.123H18.181V18.3691H19.558V21.123H20.2468V18.3691H21.6238V21.123H22.3126V18.3691H23.6896V21.123H24.3784V18.3691H25.7554V21.123H26.4442V18.3691H27.8212V21.123H28.5078V18.3691H32.6387V21.123H34.0156V18.3691H35.3926V22.4089H10.6074V18.3691H11.9844ZM18.1039 25.9427C19.3259 25.1203 20.0911 23.877 23 23.877C25.914 23.877 26.5647 25.0755 27.8961 25.9427C31.0583 28.0078 33.6066 27.9997 34.0156 28.0078H11.9844C12.3934 27.9997 15.0408 28.0078 18.1039 25.9427ZM8.54236 29.3848V32.1387H9.91931V29.3848H14.3946V32.1387H15.0834V29.3848H16.4604V32.1387H17.1492V29.3848H18.5262V32.1387H19.215V29.3848H20.592V32.1387H21.2808V29.3848H22.6578V32.1387H23.3466V29.3848H24.7236V32.1387H25.4124V29.3848H26.7894V32.1387H27.4782V29.3848H28.8552V32.1387H29.544V29.3848H30.921V32.1387H31.6098V29.3848H36.0851V32.1387H37.462V29.3848H38.839V33.0801H7.16541V29.3848H8.54236Z" fill="#0B0000"/>
</svg>
