<svg width="44" height="45" viewBox="0 0 44 45" fill="none" xmlns="http://www.w3.org/2000/svg">
<path d="M22 0.5L18.8473 7.04289C13.7831 6.93851 6.5354 4.16202 2.5139 2.75963C2.91083 5.55944 5.899 12.1005 6.06947 15.5563L0 16.8177L6.20831 23.5445C6.15597 29.0567 2.45894 36.2668 0.986162 40.1381C2.25037 39.9769 7.81796 38.0286 9.22221 37.9046L8.61108 44.5L19.4723 38.3643C19.3667 38.0643 19.3057 37.7417 19.3057 37.4053C19.3057 35.8746 20.4889 34.6271 22 34.5149C23.5114 34.6271 24.6946 35.8746 24.6946 37.4053C24.6946 37.7416 24.6334 38.0642 24.5279 38.3644L35.3888 44.5L34.7777 37.9046C36.1819 38.0286 41.7496 39.9769 43.0138 40.1381C41.541 36.2668 37.8439 29.0567 37.7916 23.5445L44 16.8177L37.9305 15.5564C38.101 12.1006 41.0893 5.55953 41.4861 2.75973C37.4645 4.16202 30.2169 6.9386 25.1527 7.04289L22 0.5ZM5.2917 5.83411C8.70826 7.20139 13.9453 9.00848 17.6528 9.13186L16.5695 11.0106C17.6662 11.4281 18.4444 12.4661 18.4444 13.7039C18.4444 15.3085 17.1291 16.6075 15.5139 16.6075C14.0623 16.6075 12.8674 15.554 12.639 14.1769L8.25 15.0966C8.09637 12.6601 6.34302 8.40109 5.2917 5.83411ZM38.7083 5.83411C37.657 8.40109 35.9036 12.66 35.75 15.0966L31.3611 14.1769C31.1327 15.554 29.9377 16.6075 28.4862 16.6075C26.871 16.6075 25.5556 15.3085 25.5556 13.7039C25.5556 12.4661 26.3339 11.4281 27.4305 11.0106L26.3472 9.13186C30.0547 9.00848 35.2917 7.20139 38.7084 5.83411H38.7083ZM22 13.5858L24.4028 17.7506C23.8927 17.9448 23.5417 18.423 23.5417 18.9987C23.5417 19.745 24.1515 20.352 24.9029 20.352C25.5779 20.352 26.1299 19.8757 26.2362 19.2352L32.1111 20.4571L28.1111 24.7927C27.8627 24.454 27.4538 24.254 27 24.254C26.2488 24.254 25.6389 24.8478 25.6389 25.5941C25.6389 26.3405 26.2488 26.9474 27.0001 26.9474C27.1533 26.9474 27.2927 26.9148 27.4305 26.8685L28.1111 32.7544L23.0695 30.4684C23.1185 30.3288 23.125 30.1913 23.125 30.035C23.125 29.3651 22.6415 28.8253 22 28.721C21.3584 28.8253 20.875 29.3651 20.875 30.0349C20.875 30.1913 20.8817 30.3288 20.9306 30.4684L15.8889 32.7545L16.5695 26.8685C16.7073 26.9149 16.8467 26.9474 17.0001 26.9474C17.7512 26.9474 18.3611 26.3405 18.3611 25.5941C18.3611 24.8478 17.7512 24.254 17 24.254C16.5462 24.254 16.1373 24.454 15.8889 24.7927L11.8889 20.4571L17.7639 19.2352C17.8702 19.8757 18.4221 20.3521 19.0972 20.3521C19.8484 20.3521 20.4584 19.745 20.4584 18.9987C20.4584 18.423 20.1073 17.9448 19.5972 17.7506L22 13.5857V13.5858ZM10.8056 24.8714C11.2924 24.8714 11.7449 24.9812 12.1528 25.1736C12.2389 25.2141 12.3215 25.2571 12.4028 25.305C12.4346 25.3235 12.4691 25.3376 12.5 25.3576C12.5085 25.3622 12.5194 25.3654 12.5277 25.3708C13.3712 25.8795 13.9306 26.7996 13.9306 27.8539C13.9306 29.4585 12.6289 30.7575 11.0139 30.7575C10.6841 30.7575 10.3657 30.6994 10.0694 30.5998L9.45831 35.8551C8.81947 35.9222 5.62844 36.7113 5.0278 36.7879C5.82298 34.8628 6.79763 31.3167 7.79165 28.143C7.77282 28.0124 7.76353 27.8807 7.76385 27.7488C7.76385 27.0847 8.00313 26.4751 8.40278 25.9883C8.40746 25.9715 8.41289 25.9521 8.41692 25.9357L8.43096 25.9489C8.98826 25.293 9.8472 24.8716 10.806 24.8716L10.8056 24.8714ZM33.1944 24.8714C34.1533 24.8714 35.0122 25.2928 35.5695 25.9488L35.5835 25.9356C35.5882 25.9522 35.5937 25.9716 35.5976 25.9881C35.9973 26.4749 36.2365 27.0845 36.2365 27.7485C36.2365 27.8839 36.2278 28.0124 36.2088 28.1427C37.2028 31.3165 38.1774 34.8625 38.9728 36.7877C38.372 36.7112 35.181 35.9221 34.5422 35.8549L33.931 30.5996C33.6347 30.6993 33.3162 30.7573 32.9866 30.7573C31.3714 30.7573 30.07 29.4583 30.07 27.8537C30.07 26.7996 30.6292 25.8793 31.4727 25.3706C31.4812 25.3651 31.4921 25.3627 31.5004 25.3574C31.5312 25.3375 31.566 25.3235 31.5977 25.3048C31.679 25.2569 31.7615 25.2141 31.8477 25.1734C32.2687 24.9739 32.7289 24.8707 33.1948 24.8712L33.1944 24.8714Z" fill="#0B0000"/>
</svg>
