<svg width="35" height="35" viewBox="0 0 35 35" fill="none" xmlns="http://www.w3.org/2000/svg">
<path d="M31.1375 33.8792L20.1708 22.9125C19.1917 23.6958 18.0656 24.316 16.7927 24.7729C15.5198 25.2299 14.1653 25.4583 12.7292 25.4583C9.17153 25.4583 6.16092 24.2265 3.69733 21.763C1.23244 19.2981 0 16.2868 0 12.7292C0 9.17153 1.23244 6.16026 3.69733 3.69537C6.16092 1.23179 9.17153 0 12.7292 0C16.2868 0 19.2981 1.23179 21.763 3.69537C24.2265 6.16026 25.4583 9.17153 25.4583 12.7292C25.4583 14.1653 25.2299 15.5198 24.7729 16.7927C24.316 18.0656 23.6958 19.1917 22.9125 20.1708L33.9281 31.1865C34.2872 31.5455 34.4667 31.9861 34.4667 32.5083C34.4667 33.0306 34.2708 33.4875 33.8792 33.8792C33.5201 34.2382 33.0632 34.4177 32.5083 34.4177C31.9535 34.4177 31.4965 34.2382 31.1375 33.8792ZM12.7292 21.5417C15.1771 21.5417 17.2581 20.6852 18.9723 18.9723C20.6852 17.2581 21.5417 15.1771 21.5417 12.7292C21.5417 10.2812 20.6852 8.20019 18.9723 6.486C17.2581 4.77311 15.1771 3.91667 12.7292 3.91667C10.2812 3.91667 8.20019 4.77311 6.486 6.486C4.77311 8.20019 3.91667 10.2812 3.91667 12.7292C3.91667 15.1771 4.77311 17.2581 6.486 18.9723C8.20019 20.6852 10.2812 21.5417 12.7292 21.5417Z" fill="#0B0000"/>
</svg>
